<svg width="150.000000" height="40.000000" viewBox="0 0 150 40" fill="none" xmlns="http://www.w3.org/2000/svg" xmlns:xlink="http://www.w3.org/1999/xlink">
	<desc>
			Created with Pixso.
	</desc>
	<defs/>
	<path id="Vector" d="M27.75 0L0 23.13L18.74 23.13L11.24 39.97L39.24 16.99L19.72 16.99L27.75 0Z" fill="#728095" fill-opacity="1.000000" fill-rule="nonzero"/>
	<path id="Vector" d="M27.75 0L15.21 18.68L33.84 18.68L11.24 39.97L39.24 16.99L19.72 16.99L27.75 0Z" fill="#4B5567" fill-opacity="1.000000" fill-rule="nonzero"/>
	<path id="Vector" d="M27.75 0L0 23.13L18.74 23.13L11.24 39.97L23.15 21.44L5.54 21.44L27.75 0Z" fill="#A1AEBF" fill-opacity="1.000000" fill-rule="nonzero"/>
	<path id="offmax" d="M69.07 13.91L71.67 13.91L71.67 16.63L69.07 16.63L69.07 27L65.44 27L65.44 16.63L63.59 16.63L63.59 13.91L65.44 13.91L65.44 12.96C65.44 10.11 67.27 8.72 69.74 8.72C70.85 8.72 71.85 8.94 72.3 9.08L71.66 11.81C71.37 11.71 70.93 11.62 70.49 11.62C69.43 11.62 69.07 12.14 69.07 13.03L69.07 13.91ZM78.81 13.91L81.41 13.91L81.41 16.63L78.81 16.63L78.81 27L75.17 27L75.17 16.63L73.33 16.63L73.33 13.91L75.17 13.91L75.17 12.96C75.17 10.11 77.01 8.72 79.47 8.72C80.59 8.72 81.58 8.94 82.03 9.08L81.4 11.81C81.11 11.71 80.66 11.62 80.23 11.62C79.16 11.62 78.81 12.14 78.81 13.03L78.81 13.91ZM61.78 20.5C61.78 24.53 59.31 27.25 55.34 27.25C51.37 27.25 48.89 24.53 48.89 20.5C48.89 16.44 51.37 13.74 55.34 13.74C59.31 13.74 61.78 16.44 61.78 20.5ZM87.73 27L84.1 27L84.1 13.91L87.56 13.91L87.56 16.21L87.71 16.21C88.26 14.67 89.6 13.74 91.37 13.74C93.16 13.74 94.5 14.7 94.92 16.21L95.05 16.21C95.59 14.71 97.08 13.74 99 13.74C101.44 13.74 103.13 15.35 103.13 18.19L103.13 27L99.5 27L99.5 18.91C99.5 17.45 98.63 16.72 97.47 16.72C96.15 16.72 95.38 17.64 95.38 19L95.38 27L91.86 27L91.86 18.83C91.86 17.54 91.05 16.72 89.87 16.72C88.65 16.72 87.73 17.69 87.73 19.14L87.73 27ZM114.02 25.18C113.39 26.4 112.14 27.24 110.2 27.24C107.7 27.24 105.86 25.93 105.86 23.34C105.86 20.41 108.18 19.55 110.77 19.31C113.05 19.08 113.94 18.97 113.94 18.13L113.94 18.08C113.94 17 113.23 16.38 112 16.38C110.7 16.38 109.92 17.02 109.67 17.9L106.31 17.62C106.82 15.24 108.88 13.74 112.02 13.74C114.93 13.74 117.58 15.05 117.58 18.16L117.58 27L114.13 27L114.13 25.18L114.02 25.18ZM120.16 13.91L123.91 13.91L126.31 18.48L128.78 13.91L132.5 13.91L128.71 20.45L132.6 27L128.89 27L126.31 22.47L123.77 27L120.02 27L123.91 20.45L120.16 13.91ZM52.58 20.47C52.58 22.76 53.52 24.44 55.36 24.44C57.16 24.44 58.09 22.76 58.09 20.47C58.09 18.19 57.16 16.5 55.36 16.5C53.52 16.5 52.58 18.19 52.58 20.47ZM109.33 23.22C109.33 24.22 110.12 24.74 111.24 24.74C112.84 24.74 113.97 23.69 113.97 22.31L113.97 20.92C113.53 21.22 112.24 21.41 111.45 21.52C110.17 21.69 109.33 22.2 109.33 23.22Z" fill="#FFFFFF" fill-opacity="1.000000" fill-rule="evenodd"/>
</svg>
