<svg width="60.000000" height="60.000000" viewBox="0 0 60 60" fill="none" xmlns="http://www.w3.org/2000/svg" xmlns:xlink="http://www.w3.org/1999/xlink">
	<desc>
			Created with Pixso.
	</desc>
	<defs>
		<clipPath id="clip2126_532">
			<rect id="Frame" width="20.000000" height="20.000000" transform="translate(20.000000 20.000000)" fill="white" fill-opacity="0"/>
		</clipPath>
	</defs>
	<rect id="Auto Layout Horizontal" rx="3.500000" width="59.000000" height="59.000000" transform="translate(0.500000 0.500000)" fill="#0F0F0F" fill-opacity="1.000000"/>
	<rect id="Frame" width="20.000000" height="20.000000" transform="translate(20.000000 20.000000)" fill="#FFFFFF" fill-opacity="0"/>
	<rect id="Frame" width="20.000000" height="20.000000" transform="translate(20.000000 20.000000)" fill="#FFFFFF" fill-opacity="0"/>
	<g clip-path="url(#clip2126_532)">
		<path id="Vector" d="M32.91 29.41L28.24 24.66C27.91 24.33 27.41 24.33 27.08 24.66C26.74 24.99 26.74 25.49 27.08 25.83L31.16 29.91L27.08 33.99C26.91 34.16 26.83 34.33 26.83 34.58C26.83 35.08 27.16 35.41 27.66 35.41C27.91 35.41 28.08 35.33 28.24 35.16L32.99 30.41C33.24 30.24 33.24 29.74 32.91 29.41Z" fill="#FFA800" fill-opacity="1.000000" fill-rule="nonzero"/>
	</g>
	<rect id="Auto Layout Horizontal" rx="3.500000" width="59.000000" height="59.000000" transform="translate(0.500000 0.500000)" stroke="#FFA800" stroke-opacity="1.000000" stroke-width="1.000000"/>
</svg>
