<svg width="60.000000" height="60.000000" viewBox="0 0 60 60" fill="none" xmlns="http://www.w3.org/2000/svg" xmlns:xlink="http://www.w3.org/1999/xlink">
	<desc>
			Created with Pixso.
	</desc>
	<defs>
		<clipPath id="clip2126_527">
			<rect id="Frame" width="20.000000" height="20.000000" transform="translate(20.000000 20.000000)" fill="white" fill-opacity="0"/>
		</clipPath>
		<clipPath id="clip2126_524">
			<rect id="Auto Layout Vertical" rx="4.000000" width="60.000000" height="60.000000" fill="white" fill-opacity="0"/>
		</clipPath>
	</defs>
	<g clip-path="url(#clip2126_524)">
		<rect id="Auto Layout Horizontal" rx="3.500000" width="59.000000" height="59.000000" transform="translate(0.500000 0.500000)" fill="#0F0F0F" fill-opacity="1.000000"/>
		<rect id="Frame" width="20.000000" height="20.000000" transform="translate(20.000000 20.000000)" fill="#FFFFFF" fill-opacity="0"/>
		<rect id="Frame" width="20.000000" height="20.000000" transform="translate(20.000000 20.000000)" fill="#FFFFFF" fill-opacity="0"/>
		<g clip-path="url(#clip2126_527)">
			<path id="Vector" d="M29.41 29.99L32.33 27.08C32.66 26.74 32.66 26.24 32.33 25.91C32 25.58 31.5 25.58 31.16 25.91L27.66 29.41C27.33 29.74 27.33 30.24 27.66 30.58L31.16 34.08C31.33 34.24 31.5 34.33 31.75 34.33C32 34.33 32.16 34.24 32.33 34.08C32.66 33.74 32.66 33.24 32.33 32.91L29.41 29.99Z" fill="#FFA800" fill-opacity="1.000000" fill-rule="nonzero"/>
		</g>
		<rect id="Auto Layout Horizontal" rx="3.500000" width="59.000000" height="59.000000" transform="translate(0.500000 0.500000)" stroke="#FFA800" stroke-opacity="1.000000" stroke-width="1.000000"/>
	</g>
</svg>
