<svg width="48.000000" height="48.000000" viewBox="0 0 48 48" fill="none" xmlns="http://www.w3.org/2000/svg" xmlns:xlink="http://www.w3.org/1999/xlink">
	<desc>
			Created with Pixso.
	</desc>
	<defs>
		<clipPath id="clip2126_315">
			<rect id="Frame" width="48.000000" height="48.000000" fill="white" fill-opacity="0"/>
		</clipPath>
		<linearGradient id="paint_linear_2126_316_0" x1="33.122044" y1="14.113321" x2="11.162843" y2="34.288868" gradientUnits="userSpaceOnUse">
			<stop stop-color="#9DE8EE"/>
			<stop offset="0.000100" stop-color="#9DE8EE"/>
			<stop offset="0.490049" stop-color="#FA7C0B"/>
			<stop offset="1.000000" stop-color="#9F8CED"/>
		</linearGradient>
	</defs>
	<rect id="Frame" width="48.000000" height="48.000000" fill="#FFFFFF" fill-opacity="0"/>
	<g clip-path="url(#clip2126_315)">
		<path id="Vector" d="M10.5 6C8.51 6 6.6 6.79 5.19 8.19C3.79 9.6 3 11.51 3 13.5L3 34.5C3 36.48 3.79 38.39 5.19 39.8C6.6 41.2 8.51 42 10.5 42L24 42C24.39 42 24.77 41.84 25.06 41.56C25.34 41.27 25.5 40.89 25.5 40.5C25.5 40.1 25.34 39.72 25.06 39.43C24.77 39.15 24.39 39 24 39L10.5 39C9.3 39 8.16 38.52 7.31 37.68C6.47 36.83 6 35.69 6 34.5L6 18L42 18L42 25.5C42 25.89 42.15 26.27 42.43 26.56C42.72 26.84 43.1 27 43.5 27C43.89 27 44.27 26.84 44.56 26.56C44.84 26.27 45 25.89 45 25.5L45 13.5C45 11.51 44.2 9.6 42.8 8.19C41.39 6.79 39.48 6 37.5 6L10.5 6ZM10.5 13.5C10.89 13.5 11.27 13.34 11.56 13.06C11.84 12.77 12 12.39 12 12C12 11.6 11.84 11.22 11.56 10.93C11.27 10.65 10.89 10.5 10.5 10.5C10.1 10.5 9.72 10.65 9.43 10.93C9.15 11.22 9 11.6 9 12C9 12.39 9.15 12.77 9.43 13.06C9.72 13.34 10.1 13.5 10.5 13.5ZM15 13.5C15.39 13.5 15.77 13.34 16.06 13.06C16.34 12.77 16.5 12.39 16.5 12C16.5 11.6 16.34 11.22 16.06 10.93C15.77 10.65 15.39 10.5 15 10.5C14.6 10.5 14.22 10.65 13.93 10.93C13.65 11.22 13.5 11.6 13.5 12C13.5 12.39 13.65 12.77 13.93 13.06C14.22 13.34 14.6 13.5 15 13.5ZM21 12C21 12.39 20.84 12.77 20.56 13.06C20.27 13.34 19.89 13.5 19.5 13.5C19.1 13.5 18.72 13.34 18.43 13.06C18.15 12.77 18 12.39 18 12C18 11.6 18.15 11.22 18.43 10.93C18.72 10.65 19.1 10.5 19.5 10.5C19.89 10.5 20.27 10.65 20.56 10.93C20.84 11.22 21 11.6 21 12Z" fill="url(#paint_linear_2126_316_0)" fill-opacity="1.000000" fill-rule="evenodd"/>
		<path id="Vector" d="M36.4 30.84C33.01 29.87 29.87 33.01 30.84 36.4L32.2 41.16C33.14 44.46 37.28 45.53 39.71 43.1L39.91 42.91L41.74 44.74C42.02 45.02 42.4 45.18 42.8 45.18C43.2 45.18 43.58 45.02 43.86 44.74C44.14 44.46 44.3 44.08 44.3 43.68C44.3 43.28 44.14 42.9 43.86 42.62L42.03 40.78L43.1 39.71C45.53 37.28 44.46 33.14 41.16 32.2L36.4 30.84L36.4 30.84ZM36 22.5C36 22.1 35.84 21.72 35.56 21.43C35.27 21.15 34.89 21 34.5 21C34.1 21 33.72 21.15 33.43 21.43C33.15 21.72 33 22.1 33 22.5L33 25.5C33 25.89 33.15 26.27 33.43 26.56C33.72 26.84 34.1 27 34.5 27C34.89 27 35.27 26.84 35.56 26.56C35.84 26.27 36 25.89 36 25.5L36 22.5ZM23.56 22.93C23.84 22.65 24.22 22.5 24.62 22.5C25.01 22.5 25.4 22.65 25.68 22.93L27.8 25.06C28.08 25.34 28.24 25.72 28.24 26.12C28.24 26.51 28.08 26.9 27.8 27.18C27.52 27.46 27.14 27.62 26.74 27.62C26.34 27.62 25.96 27.46 25.68 27.18L23.56 25.06C23.27 24.77 23.12 24.39 23.12 24C23.12 23.6 23.27 23.22 23.56 22.93ZM19.5 33C19.5 32.6 19.65 32.22 19.93 31.93C20.22 31.65 20.6 31.5 21 31.5L24 31.5C24.39 31.5 24.77 31.65 25.06 31.93C25.34 32.22 25.5 32.6 25.5 33C25.5 33.39 25.34 33.77 25.06 34.06C24.77 34.34 24.39 34.5 24 34.5L21 34.5C20.6 34.5 20.22 34.34 19.93 34.06C19.65 33.77 19.5 33.39 19.5 33Z" fill="#FFFFFF" fill-opacity="1.000000" fill-rule="evenodd"/>
	</g>
</svg>
