<svg width="37.000000" height="38.000000" viewBox="0 0 37 38" fill="none" xmlns="http://www.w3.org/2000/svg" xmlns:xlink="http://www.w3.org/1999/xlink">
	<desc>
			Created with Pixso.
	</desc>
	<defs/>
	<path id="Vector" d="M29.11 14.85C29.11 15.67 28.44 16.34 27.63 16.34C26.81 16.34 26.14 15.67 26.14 14.85C26.14 14.03 26.81 13.36 27.63 13.36C28.44 13.36 29.11 14.03 29.11 14.85Z" fill="#9F9F9F" fill-opacity="1.000000" fill-rule="evenodd"/>
	<path id="Vector" d="M31.03 2.19L29.11 2.19L29.11 0.7C29.11 -0.12 28.44 -0.79 27.63 -0.79C26.81 -0.79 26.15 -0.12 26.15 0.7L26.15 2.19L19.4 2.19L19.4 0.7C19.4 -0.12 18.74 -0.79 17.92 -0.79C17.1 -0.79 16.44 -0.12 16.44 0.7L16.44 2.19L9.77 2.19L9.77 0.7C9.77 -0.12 9.11 -0.79 8.29 -0.79C7.47 -0.79 6.81 -0.12 6.81 0.7L6.81 2.19L4.96 2.19C1.69 2.19 -0.97 4.86 -0.97 8.15L-0.97 31.39C-0.97 34.67 1.69 37.34 4.96 37.34L16.29 37.34C17.11 37.34 17.77 36.68 17.77 35.85C17.77 35.03 17.11 34.36 16.29 34.36L4.96 34.36C3.32 34.36 1.99 33.03 1.99 31.39L1.99 8.15C1.99 6.51 3.32 5.17 4.96 5.17L6.81 5.17L6.81 6.66C6.81 7.48 7.47 8.15 8.29 8.15C9.11 8.15 9.77 7.48 9.77 6.66L9.77 5.17L16.44 5.17L16.44 6.66C16.44 7.48 17.1 8.15 17.92 8.15C18.74 8.15 19.4 7.48 19.4 6.66L19.4 5.17L26.15 5.17L26.15 6.66C26.15 7.48 26.81 8.15 27.63 8.15C28.44 8.15 29.11 7.48 29.11 6.66L29.11 5.17L31.03 5.17C32.67 5.17 34 6.51 34 8.15L34 16.64C34 17.46 34.66 18.13 35.48 18.13C36.3 18.13 36.96 17.46 36.96 16.64L36.96 8.15C36.96 4.86 34.3 2.19 31.03 2.19Z" fill="#9F9F9F" fill-opacity="1.000000" fill-rule="nonzero"/>
	<path id="Vector" d="M28 19.32C23.05 19.32 19.03 23.36 19.03 28.33C19.03 33.3 23.05 37.34 28 37.34C32.94 37.34 36.96 33.3 36.96 28.33C36.96 23.36 32.94 19.32 28 19.32ZM28 34.36C24.69 34.36 22 31.66 22 28.33C22 25.01 24.69 22.3 28 22.3C31.31 22.3 34 25.01 34 28.33C34 31.66 31.31 34.36 28 34.36Z" fill="#9F9F9F" fill-opacity="1.000000" fill-rule="nonzero"/>
	<path id="Vector" d="M30.15 26.84L29.48 26.84L29.48 25.28C29.48 24.46 28.82 23.79 28 23.79C27.18 23.79 26.51 24.46 26.51 25.28L26.51 28.33C26.51 29.15 27.18 29.82 28 29.82L30.15 29.82C30.96 29.82 31.63 29.15 31.63 28.33C31.63 27.51 30.96 26.84 30.15 26.84Z" fill="#9F9F9F" fill-opacity="1.000000" fill-rule="nonzero"/>
	<path id="Vector" d="M22.66 14.85C22.66 15.67 22 16.34 21.18 16.34C20.36 16.34 19.7 15.67 19.7 14.85C19.7 14.03 20.36 13.36 21.18 13.36C22 13.36 22.66 14.03 22.66 14.85Z" fill="#9F9F9F" fill-opacity="1.000000" fill-rule="evenodd"/>
	<path id="Vector" d="M16.22 21.33C16.22 22.15 15.55 22.82 14.74 22.82C13.92 22.82 13.25 22.15 13.25 21.33C13.25 20.51 13.92 19.84 14.74 19.84C15.55 19.84 16.22 20.51 16.22 21.33Z" fill="#9F9F9F" fill-opacity="1.000000" fill-rule="evenodd"/>
	<path id="Vector" d="M9.77 14.85C9.77 15.67 9.11 16.34 8.29 16.34C7.47 16.34 6.81 15.67 6.81 14.85C6.81 14.03 7.47 13.36 8.29 13.36C9.11 13.36 9.77 14.03 9.77 14.85Z" fill="#9F9F9F" fill-opacity="1.000000" fill-rule="evenodd"/>
	<path id="Vector" d="M9.77 21.33C9.77 22.15 9.11 22.82 8.29 22.82C7.47 22.82 6.81 22.15 6.81 21.33C6.81 20.51 7.47 19.84 8.29 19.84C9.11 19.84 9.77 20.51 9.77 21.33Z" fill="#9F9F9F" fill-opacity="1.000000" fill-rule="evenodd"/>
	<path id="Vector" d="M9.77 27.81C9.77 28.63 9.11 29.3 8.29 29.3C7.47 29.3 6.81 28.63 6.81 27.81C6.81 26.99 7.47 26.32 8.29 26.32C9.11 26.32 9.77 26.99 9.77 27.81Z" fill="#9F9F9F" fill-opacity="1.000000" fill-rule="evenodd"/>
	<path id="Vector" d="M16.22 27.81C16.22 28.63 15.55 29.3 14.74 29.3C13.92 29.3 13.25 28.63 13.25 27.81C13.25 26.99 13.92 26.32 14.74 26.32C15.55 26.32 16.22 26.99 16.22 27.81Z" fill="#9F9F9F" fill-opacity="1.000000" fill-rule="evenodd"/>
	<path id="Vector" d="M16.22 14.85C16.22 15.67 15.55 16.34 14.74 16.34C13.92 16.34 13.25 15.67 13.25 14.85C13.25 14.03 13.92 13.36 14.74 13.36C15.55 13.36 16.22 14.03 16.22 14.85Z" fill="#9F9F9F" fill-opacity="1.000000" fill-rule="evenodd"/>
</svg>
