<svg width="35.000000" height="35.000000" viewBox="0 0 35 35" fill="none" xmlns="http://www.w3.org/2000/svg" xmlns:xlink="http://www.w3.org/1999/xlink">
	<desc>
			Created with Pixso.
	</desc>
	<defs>
		<clipPath id="clip2157_423">
			<rect id="Frame" width="35.000000" height="35.000000" fill="white" fill-opacity="0"/>
		</clipPath>
		<linearGradient id="paint_linear_2157_425_0" x1="36.249996" y1="4.227255" x2="6.802370" y2="27.503067" gradientUnits="userSpaceOnUse">
			<stop stop-color="#9DE8EE"/>
			<stop offset="0.000100" stop-color="#9DE8EE"/>
			<stop offset="0.490049" stop-color="#FA7C0B"/>
			<stop offset="1.000000" stop-color="#9F8CED"/>
		</linearGradient>
	</defs>
	<rect id="Frame" width="35.000000" height="35.000000" fill="#FFFFFF" fill-opacity="0"/>
	<g clip-path="url(#clip2157_423)">
		<path id="Vector" d="M17.5 0C27.16 0 35 7.83 35 17.5C35 27.16 27.16 35 17.5 35C7.83 35 0 27.16 0 17.5C0 7.83 7.83 0 17.5 0ZM27.77 25.59C28.02 25.34 28.16 25 28.16 24.65C28.16 24.29 28.02 23.95 27.77 23.7L24.34 20.27C24.09 20.02 23.75 19.88 23.4 19.88C23.04 19.88 22.7 20.02 22.45 20.27L21.52 21.21C21.21 21.52 20.81 21.72 20.38 21.79C19.94 21.85 19.5 21.77 19.11 21.57C16.69 20.28 14.71 18.3 13.42 15.88C13.22 15.49 13.14 15.05 13.2 14.62C13.27 14.18 13.47 13.78 13.78 13.47L14.72 12.54C14.97 12.29 15.11 11.95 15.11 11.59C15.11 11.24 14.97 10.9 14.72 10.65L11.29 7.22C11.04 6.97 10.7 6.83 10.34 6.83C9.99 6.83 9.65 6.97 9.4 7.22C9.26 7.36 9.08 7.53 8.89 7.71C8.41 8.17 7.81 8.73 7.57 9.08C6.3 10.95 6.91 13.44 7.64 15.2C8.61 17.52 10.39 20.05 12.66 22.33C14.94 24.6 17.47 26.38 19.79 27.35C21.55 28.09 24.04 28.69 25.91 27.42C26.26 27.18 26.82 26.58 27.28 26.1C27.46 25.91 27.63 25.73 27.77 25.59Z" fill="#FFFFFF" fill-opacity="1.000000" fill-rule="evenodd"/>
		<path id="Vector" d="M17.5 0C27.16 0 35 7.83 35 17.5C35 27.16 27.16 35 17.5 35C7.83 35 0 27.16 0 17.5C0 7.83 7.83 0 17.5 0ZM27.77 25.59C28.02 25.34 28.16 25 28.16 24.65C28.16 24.29 28.02 23.95 27.77 23.7L24.34 20.27C24.09 20.02 23.75 19.88 23.4 19.88C23.04 19.88 22.7 20.02 22.45 20.27L21.52 21.21C21.21 21.52 20.81 21.72 20.38 21.79C19.94 21.85 19.5 21.77 19.11 21.57C16.69 20.28 14.71 18.3 13.42 15.88C13.22 15.49 13.14 15.05 13.2 14.62C13.27 14.18 13.47 13.78 13.78 13.47L14.72 12.54C14.97 12.29 15.11 11.95 15.11 11.59C15.11 11.24 14.97 10.9 14.72 10.65L11.29 7.22C11.04 6.97 10.7 6.83 10.34 6.83C9.99 6.83 9.65 6.97 9.4 7.22C9.26 7.36 9.08 7.53 8.89 7.71C8.41 8.17 7.81 8.73 7.57 9.08C6.3 10.95 6.91 13.44 7.64 15.2C8.61 17.52 10.39 20.05 12.66 22.33C14.94 24.6 17.47 26.38 19.79 27.35C21.55 28.09 24.04 28.69 25.91 27.42C26.26 27.18 26.82 26.58 27.28 26.1C27.46 25.91 27.63 25.73 27.77 25.59Z" fill="url(#paint_linear_2157_425_0)" fill-opacity="1.000000" fill-rule="evenodd"/>
	</g>
</svg>
