<svg width="35.000000" height="38.000000" viewBox="0 0 35 38" fill="none" xmlns="http://www.w3.org/2000/svg" xmlns:xlink="http://www.w3.org/1999/xlink">
	<desc>
			Created with Pixso.
	</desc>
	<defs/>
	<path id="Layer 2" d="M34.76 5.68C34.76 4.34 34.33 3.04 33.53 1.96C32.74 0.89 31.61 0.1 30.33 -0.28C29.05 -0.66 27.67 -0.62 26.42 -0.16C25.16 0.3 24.09 1.16 23.36 2.28C19.27 0.67 14.72 0.67 10.63 2.28C10.14 1.54 9.5 0.9 8.75 0.43C8 -0.05 7.16 -0.36 6.28 -0.48C5.4 -0.6 4.5 -0.53 3.65 -0.28C2.8 -0.02 2.02 0.41 1.35 1C0.68 1.58 0.14 2.3 -0.22 3.11C-0.59 3.92 -0.77 4.8 -0.77 5.69C-0.77 6.58 -0.57 7.46 -0.2 8.26C0.17 9.07 0.71 9.79 1.39 10.37C-0.53 13.88 -1.2 17.94 -0.5 21.89C0.19 25.83 2.2 29.42 5.2 32.08L5.2 36.59C5.2 36.95 5.34 37.3 5.6 37.56C5.86 37.82 6.21 37.96 6.57 37.96C6.94 37.96 7.29 37.82 7.54 37.56C7.8 37.3 7.95 36.95 7.95 36.59L7.95 34.09C10.68 35.73 13.81 36.6 17 36.6C20.18 36.6 23.31 35.73 26.04 34.09L26.04 36.59C26.04 36.95 26.19 37.3 26.44 37.56C26.7 37.82 27.05 37.96 27.42 37.96C27.78 37.96 28.13 37.82 28.39 37.56C28.65 37.3 28.79 36.95 28.79 36.59L28.79 32.08C31.79 29.42 33.8 25.83 34.49 21.89C35.18 17.94 34.52 13.88 32.6 10.37C33.28 9.79 33.82 9.07 34.19 8.26C34.56 7.45 34.76 6.57 34.76 5.68ZM28.54 2.21C29.22 2.21 29.89 2.4 30.45 2.77C31.02 3.14 31.47 3.66 31.74 4.29C32 4.91 32.08 5.59 31.96 6.26C31.84 6.92 31.53 7.54 31.06 8.03C29.64 6.19 27.88 4.65 25.88 3.48C26.2 3.08 26.61 2.77 27.07 2.55C27.53 2.33 28.03 2.21 28.54 2.21ZM1.98 5.68C1.98 4.97 2.2 4.27 2.61 3.69C3.02 3.11 3.6 2.67 4.27 2.43C4.94 2.19 5.67 2.16 6.36 2.35C7.05 2.53 7.66 2.93 8.11 3.48C6.11 4.65 4.35 6.19 2.93 8.03C2.32 7.39 1.99 6.55 1.98 5.68ZM17 33.84C14.02 33.84 11.12 32.96 8.65 31.31C6.18 29.66 4.26 27.31 3.12 24.57C1.99 21.82 1.69 18.8 2.27 15.89C2.85 12.98 4.28 10.3 6.38 8.2C8.48 6.1 11.16 4.67 14.07 4.09C16.99 3.52 20.01 3.82 22.75 4.95C25.49 6.09 27.84 8.02 29.49 10.49C31.13 12.96 32.01 15.87 32.01 18.84C32 22.82 30.42 26.63 27.6 29.44C24.79 32.25 20.97 33.83 17 33.84ZM25.25 18.71C25.25 19.08 25.1 19.43 24.84 19.68C24.58 19.94 24.23 20.09 23.87 20.09L19.75 20.17C18.65 20.17 17.6 19.74 16.83 18.96C16.05 18.19 15.62 17.14 15.62 16.05L15.62 9.09C15.62 8.72 15.76 8.37 16.02 8.12C16.28 7.86 16.63 7.71 17 7.71C17.36 7.71 17.71 7.86 17.97 8.12C18.23 8.37 18.37 8.72 18.37 9.09L18.37 16.05C18.37 16.23 18.41 16.41 18.48 16.57C18.55 16.74 18.65 16.89 18.78 17.02C19.05 17.27 19.4 17.41 19.76 17.42L23.87 17.34C24.23 17.34 24.58 17.48 24.84 17.74C25.1 18 25.25 18.35 25.25 18.71Z" fill="#9F9F9F" fill-opacity="1.000000" fill-rule="nonzero"/>
</svg>
