<svg width="48.000000" height="48.000000" viewBox="0 0 48 48" fill="none" xmlns="http://www.w3.org/2000/svg" xmlns:xlink="http://www.w3.org/1999/xlink">
	<desc>
			Created with Pixso.
	</desc>
	<defs>
		<clipPath id="clip2126_321">
			<rect id="Frame" width="48.000000" height="48.000000" fill="white" fill-opacity="0"/>
		</clipPath>
		<linearGradient id="paint_linear_2126_323_0" x1="33.122040" y1="12.465540" x2="11.162840" y2="36.003677" gradientUnits="userSpaceOnUse">
			<stop stop-color="#9DE8EE"/>
			<stop offset="0.000100" stop-color="#9DE8EE"/>
			<stop offset="0.490049" stop-color="#FA7C0B"/>
			<stop offset="1.000000" stop-color="#9F8CED"/>
		</linearGradient>
	</defs>
	<rect id="Frame" width="48.000000" height="48.000000" fill="#FFFFFF" fill-opacity="0"/>
	<g clip-path="url(#clip2126_321)">
		<path id="Vector" d="M19.5 19.5C19.5 17.01 21.51 15 24 15C26.48 15 28.5 17.01 28.5 19.5L28.5 21C28.5 23.48 26.48 25.5 24 25.5C21.51 25.5 19.5 23.48 19.5 21L19.5 19.5ZM18.81 30.81C19.33 30.29 20.04 30 20.78 30L27.21 30C27.95 30 28.66 30.29 29.18 30.81C29.7 31.33 30 32.04 30 32.78C30 33.61 30.67 34.28 31.5 34.28C32.32 34.28 33 33.61 33 32.78C33 31.25 32.39 29.77 31.3 28.69C30.22 27.6 28.74 27 27.21 27L20.78 27C19.25 27 17.77 27.6 16.69 28.69C15.6 29.77 15 31.25 15 32.78C15 33.61 15.67 34.28 16.5 34.28C17.32 34.28 18 33.61 18 32.78C18 32.04 18.29 31.33 18.81 30.81Z" fill="#FFFFFF" fill-opacity="1.000000" fill-rule="evenodd"/>
		<path id="Vector" d="M3 24C3 12.4 12.4 3 24 3C35.59 3 45 12.4 45 24C45 35.59 35.59 45 24 45C12.4 45 3 35.59 3 24ZM22.5 6.06L22.5 7.5C22.5 8.32 23.17 9 24 9C24.82 9 25.5 8.32 25.5 7.5L25.5 6.06C34.24 6.78 41.21 13.75 41.93 22.5L40.5 22.5C39.67 22.5 39 23.17 39 24C39 24.82 39.67 25.5 40.5 25.5L41.93 25.5C41.21 34.24 34.24 41.21 25.5 41.93L25.5 40.5C25.5 39.67 24.82 39 24 39C23.17 39 22.5 39.67 22.5 40.5L22.5 41.93C13.75 41.21 6.78 34.24 6.06 25.5L7.5 25.5C8.32 25.5 9 24.82 9 24C9 23.17 8.32 22.5 7.5 22.5L6.06 22.5C6.78 13.75 13.75 6.78 22.5 6.06Z" fill="url(#paint_linear_2126_323_0)" fill-opacity="1.000000" fill-rule="evenodd"/>
	</g>
</svg>
