<svg width="33.000000" height="34.000000" viewBox="0 0 33 34" fill="none" xmlns="http://www.w3.org/2000/svg" xmlns:xlink="http://www.w3.org/1999/xlink">
	<desc>
			Created with Pixso.
	</desc>
	<defs/>
	<path id="Vector" d="M16 29.55C8.84 29.55 3.16 23.86 3.16 16.71C3.16 9.56 8.84 3.88 16 3.88C19.66 3.88 23.15 5.53 25.53 8.1L22.23 8.65C21.31 8.83 20.58 9.75 20.76 10.85C20.94 11.76 21.68 12.31 22.59 12.31L22.96 12.31L30.66 10.85C31.58 10.66 32.31 9.75 32.13 8.65L30.66 1.13C30.48 0.21 29.56 -0.52 28.46 -0.34C27.55 -0.15 26.81 0.76 27 1.86L27.55 4.98C24.43 2.05 20.4 0.21 16 0.21C9.94 0.21 4.63 3.51 1.69 8.46C0.23 11.03 -0.5 13.78 -0.5 16.71C-0.5 19.65 0.23 22.4 1.69 24.96C3.16 27.53 5.18 29.55 7.75 31.01C10.31 32.48 13.06 33.21 16 33.21C16.73 33.21 17.46 32.66 17.65 32.11C17.83 31.93 17.83 31.56 17.83 31.38C17.83 31.2 17.83 30.83 17.65 30.65C17.46 30.1 16.73 29.55 16 29.55Z" fill="#9F9F9F" fill-opacity="1.000000" fill-rule="nonzero"/>
	<path id="Vector" d="M32.5 16.71C32.5 17.73 31.67 18.55 30.66 18.55C29.65 18.55 28.83 17.73 28.83 16.71C28.83 15.7 29.65 14.88 30.66 14.88C31.67 14.88 32.5 15.7 32.5 16.71Z" fill="#9F9F9F" fill-opacity="1.000000" fill-rule="evenodd"/>
	<path id="Vector" d="M29.59 22.5C30.47 23.01 30.76 24.13 30.26 25.01C29.75 25.88 28.63 26.18 27.75 25.68C26.88 25.17 26.58 24.05 27.08 23.17C27.59 22.3 28.71 22 29.59 22.5Z" fill="#9F9F9F" fill-opacity="1.000000" fill-rule="evenodd"/>
	<path id="Vector" d="M24.89 28.45C25.39 29.33 25.09 30.45 24.22 30.96C23.34 31.46 22.22 31.16 21.71 30.29C21.21 29.41 21.51 28.29 22.38 27.78C23.26 27.28 24.38 27.58 24.89 28.45Z" fill="#9F9F9F" fill-opacity="1.000000" fill-rule="evenodd"/>
	<path id="Vector" d="M17.83 15.98L17.83 11.21C17.83 10.11 17.09 9.38 16 9.38C14.89 9.38 14.16 10.11 14.16 11.21L14.16 16.71C14.16 17.26 14.34 17.63 14.71 18L18.38 21.66C18.75 22.03 19.29 22.21 19.66 22.21C20.03 22.21 20.58 22.03 20.94 21.66C21.68 20.93 21.68 19.83 20.94 19.1L17.83 15.98Z" fill="#9F9F9F" fill-opacity="1.000000" fill-rule="nonzero"/>
</svg>
