<svg width="68.000000" height="68.000000" viewBox="0 0 68 68" fill="none" xmlns="http://www.w3.org/2000/svg" xmlns:xlink="http://www.w3.org/1999/xlink">
	<desc>
			Created with Pixso.
	</desc>
	<defs>
		<clipPath id="clip2152_757">
			<rect id="Frame" width="68.000000" height="68.000000" transform="translate(-0.500000 0.000000)" fill="white" fill-opacity="0"/>
		</clipPath>
		<linearGradient id="paint_linear_2152_759_0" x1="68.653076" y1="8.980164" x2="13.273151" y2="52.753227" gradientUnits="userSpaceOnUse">
			<stop stop-color="#9DE8EE"/>
			<stop offset="0.000100" stop-color="#9DE8EE"/>
			<stop offset="0.490049" stop-color="#FA7C0B"/>
			<stop offset="1.000000" stop-color="#9F8CED"/>
		</linearGradient>
	</defs>
	<rect id="Frame" width="68.000000" height="68.000000" transform="translate(-0.500000 0.000000)" fill="#FFFFFF" fill-opacity="0"/>
	<g clip-path="url(#clip2152_757)">
		<path id="Vector" d="M33.39 1.03C39.52 1.1 45.05 2.6 50 5.55C54.89 8.43 58.95 12.52 61.81 17.42C64.73 22.4 66.23 27.97 66.3 34.14C66.12 42.57 63.46 49.78 58.31 55.76C53.16 61.73 46.57 65.43 39.74 66.85L39.74 43.19L46.2 43.19L47.66 33.89L37.88 33.89L37.88 27.8C37.83 26.54 38.23 25.3 39.01 24.31C39.79 23.31 41.17 22.79 43.14 22.74L49.04 22.74L49.04 14.59C48.95 14.57 48.15 14.46 46.63 14.27C44.9 14.07 43.16 13.96 41.43 13.95C37.49 13.96 34.38 15.07 32.09 17.28C29.81 19.48 28.64 22.66 28.59 26.83L28.59 33.89L21.15 33.89L21.15 43.19L28.59 43.19L28.59 66.85C20.2 65.43 13.61 61.73 8.46 55.76C3.31 49.78 0.65 42.57 0.48 34.14C0.55 27.97 2.04 22.4 4.97 17.42C7.82 12.52 11.89 8.43 16.77 5.54C21.72 2.6 27.26 1.1 33.39 1.03Z" fill="#FFFFFF" fill-opacity="1.000000" fill-rule="evenodd"/>
		<path id="Vector" d="M33.39 1.03C39.52 1.1 45.05 2.6 50 5.55C54.89 8.43 58.95 12.52 61.81 17.42C64.73 22.4 66.23 27.97 66.3 34.14C66.12 42.57 63.46 49.78 58.31 55.76C53.16 61.73 46.57 65.43 39.74 66.85L39.74 43.19L46.2 43.19L47.66 33.89L37.88 33.89L37.88 27.8C37.83 26.54 38.23 25.3 39.01 24.31C39.79 23.31 41.17 22.79 43.14 22.74L49.04 22.74L49.04 14.59C48.95 14.57 48.15 14.46 46.63 14.27C44.9 14.07 43.16 13.96 41.43 13.95C37.49 13.96 34.38 15.07 32.09 17.28C29.81 19.48 28.64 22.66 28.59 26.83L28.59 33.89L21.15 33.89L21.15 43.19L28.59 43.19L28.59 66.85C20.2 65.43 13.61 61.73 8.46 55.76C3.31 49.78 0.65 42.57 0.48 34.14C0.55 27.97 2.04 22.4 4.97 17.42C7.82 12.52 11.89 8.43 16.77 5.54C21.72 2.6 27.26 1.1 33.39 1.03Z" fill="url(#paint_linear_2152_759_0)" fill-opacity="1.000000" fill-rule="evenodd"/>
	</g>
</svg>
