<svg width="68.000000" height="68.000000" viewBox="0 0 68 68" fill="none" xmlns="http://www.w3.org/2000/svg" xmlns:xlink="http://www.w3.org/1999/xlink">
	<desc>
			Created with Pixso.
	</desc>
	<defs>
		<clipPath id="clip2152_761">
			<rect id="Frame" width="68.000000" height="68.000000" transform="translate(-0.500000 0.000000)" fill="white" fill-opacity="0"/>
		</clipPath>
		<linearGradient id="paint_linear_2152_763_0" x1="40.970703" y1="28.711639" x2="29.237665" y2="37.985600" gradientUnits="userSpaceOnUse">
			<stop stop-color="#9DE8EE"/>
			<stop offset="0.000100" stop-color="#9DE8EE"/>
			<stop offset="0.490049" stop-color="#FA7C0B"/>
			<stop offset="1.000000" stop-color="#9F8CED"/>
		</linearGradient>
		<linearGradient id="paint_linear_2152_764_0" x1="69.074753" y1="8.817364" x2="13.203138" y2="52.979065" gradientUnits="userSpaceOnUse">
			<stop stop-color="#9DE8EE"/>
			<stop offset="0.000100" stop-color="#9DE8EE"/>
			<stop offset="0.490049" stop-color="#FA7C0B"/>
			<stop offset="1.000000" stop-color="#9F8CED"/>
		</linearGradient>
		<linearGradient id="paint_linear_2152_765_0" x1="51.431850" y1="21.458475" x2="23.231133" y2="43.451965" gradientUnits="userSpaceOnUse">
			<stop stop-color="#9DE8EE"/>
			<stop offset="0.000100" stop-color="#9DE8EE"/>
			<stop offset="0.490049" stop-color="#FA7C0B"/>
			<stop offset="1.000000" stop-color="#9F8CED"/>
		</linearGradient>
	</defs>
	<rect id="Frame" width="68.000000" height="68.000000" transform="translate(-0.500000 0.000000)" fill="#FFFFFF" fill-opacity="0"/>
	<g clip-path="url(#clip2152_761)">
		<path id="Vector" d="M40.47 34C40.47 37.85 37.35 40.97 33.5 40.97C29.64 40.97 26.52 37.85 26.52 34C26.52 30.14 29.64 27.02 33.5 27.02C37.35 27.02 40.47 30.14 40.47 34Z" fill="#FFFFFF" fill-opacity="1.000000" fill-rule="evenodd"/>
		<path id="Vector" d="M40.47 34C40.47 37.85 37.35 40.97 33.5 40.97C29.64 40.97 26.52 37.85 26.52 34C26.52 30.14 29.64 27.02 33.5 27.02C37.35 27.02 40.47 30.14 40.47 34Z" fill="url(#paint_linear_2152_763_0)" fill-opacity="1.000000" fill-rule="evenodd"/>
		<path id="Vector" d="M33.5 0.79C15.16 0.79 0.29 15.66 0.29 34C0.29 52.33 15.16 67.2 33.5 67.2C51.83 67.2 66.7 52.33 66.7 34C66.7 15.66 51.83 0.79 33.5 0.79ZM54.01 42.43C53.85 45.59 52.96 48.7 50.66 50.98C48.34 53.28 45.21 54.13 42.02 54.29L24.97 54.29C21.78 54.13 18.65 53.28 16.33 50.98C14.03 48.7 13.14 45.59 12.98 42.43L12.98 25.56C13.14 22.4 14.03 19.29 16.33 17.01C18.65 14.71 21.78 13.86 24.97 13.7L42.02 13.7C45.21 13.86 48.34 14.71 50.66 17.01C52.96 19.29 53.85 22.4 54.01 25.56L54.01 42.43Z" fill="#FFFFFF" fill-opacity="1.000000" fill-rule="nonzero"/>
		<path id="Vector" d="M33.5 0.79C15.16 0.79 0.29 15.66 0.29 34C0.29 52.33 15.16 67.2 33.5 67.2C51.83 67.2 66.7 52.33 66.7 34C66.7 15.66 51.83 0.79 33.5 0.79ZM54.01 42.43C53.85 45.59 52.96 48.7 50.66 50.98C48.34 53.28 45.21 54.13 42.02 54.29L24.97 54.29C21.78 54.13 18.65 53.28 16.33 50.98C14.03 48.7 13.14 45.59 12.98 42.43L12.98 25.56C13.14 22.4 14.03 19.29 16.33 17.01C18.65 14.71 21.78 13.86 24.97 13.7L42.02 13.7C45.21 13.86 48.34 14.71 50.66 17.01C52.96 19.29 53.85 22.4 54.01 25.56L54.01 42.43Z" fill="url(#paint_linear_2152_764_0)" fill-opacity="1.000000" fill-rule="nonzero"/>
		<path id="Vector" d="M41.81 17.54C37.65 17.43 29.34 17.43 25.18 17.54C23.02 17.6 20.57 18.14 19.03 19.79C17.43 21.5 16.82 23.56 16.76 25.88C16.65 29.93 16.76 42.11 16.76 42.11C16.83 44.42 17.43 46.49 19.03 48.2C20.57 49.85 23.02 50.39 25.18 50.45C29.34 50.56 37.65 50.56 41.81 50.45C43.97 50.39 46.42 49.85 47.96 48.2C49.56 46.49 50.17 44.43 50.23 42.11L50.23 25.88C50.17 23.56 49.56 21.5 47.96 19.79C46.42 18.14 43.97 17.6 41.81 17.54ZM33.5 44.8C31.36 44.8 29.27 44.17 27.49 42.98C25.71 41.79 24.33 40.11 23.51 38.13C22.69 36.16 22.48 33.98 22.89 31.89C23.31 29.79 24.34 27.86 25.85 26.35C27.36 24.84 29.29 23.81 31.39 23.4C33.48 22.98 35.66 23.19 37.63 24.01C39.6 24.83 41.29 26.21 42.48 27.99C43.67 29.77 44.3 31.86 44.3 34C44.3 36.86 43.16 39.61 41.14 41.64C39.11 43.66 36.36 44.8 33.5 44.8ZM44.35 25.42C43.92 25.42 43.5 25.29 43.15 25.05C42.79 24.82 42.51 24.48 42.35 24.08C42.19 23.69 42.15 23.25 42.23 22.83C42.31 22.42 42.52 22.03 42.82 21.73C43.12 21.43 43.51 21.22 43.93 21.14C44.35 21.05 44.78 21.1 45.17 21.26C45.57 21.42 45.91 21.7 46.15 22.06C46.38 22.41 46.51 22.83 46.51 23.26C46.51 23.54 46.45 23.82 46.34 24.08C46.24 24.35 46.08 24.58 45.88 24.79C45.68 24.99 45.44 25.15 45.17 25.25C44.91 25.36 44.63 25.42 44.35 25.42Z" fill="#FFFFFF" fill-opacity="1.000000" fill-rule="nonzero"/>
		<path id="Vector" d="M41.81 17.54C37.65 17.43 29.34 17.43 25.18 17.54C23.02 17.6 20.57 18.14 19.03 19.79C17.43 21.5 16.82 23.56 16.76 25.88C16.65 29.93 16.76 42.11 16.76 42.11C16.83 44.42 17.43 46.49 19.03 48.2C20.57 49.85 23.02 50.39 25.18 50.45C29.34 50.56 37.65 50.56 41.81 50.45C43.97 50.39 46.42 49.85 47.96 48.2C49.56 46.49 50.17 44.43 50.23 42.11L50.23 25.88C50.17 23.56 49.56 21.5 47.96 19.79C46.42 18.14 43.97 17.6 41.81 17.54ZM33.5 44.8C31.36 44.8 29.27 44.17 27.49 42.98C25.71 41.79 24.33 40.11 23.51 38.13C22.69 36.16 22.48 33.98 22.89 31.89C23.31 29.79 24.34 27.86 25.85 26.35C27.36 24.84 29.29 23.81 31.39 23.4C33.48 22.98 35.66 23.19 37.63 24.01C39.6 24.83 41.29 26.21 42.48 27.99C43.67 29.77 44.3 31.86 44.3 34C44.3 36.86 43.16 39.61 41.14 41.64C39.11 43.66 36.36 44.8 33.5 44.8ZM44.35 25.42C43.92 25.42 43.5 25.29 43.15 25.05C42.79 24.82 42.51 24.48 42.35 24.08C42.19 23.69 42.15 23.25 42.23 22.83C42.31 22.42 42.52 22.03 42.82 21.73C43.12 21.43 43.51 21.22 43.93 21.14C44.35 21.05 44.78 21.1 45.17 21.26C45.57 21.42 45.91 21.7 46.15 22.06C46.38 22.41 46.51 22.83 46.51 23.26C46.51 23.54 46.45 23.82 46.34 24.08C46.24 24.35 46.08 24.58 45.88 24.79C45.68 24.99 45.44 25.15 45.17 25.25C44.91 25.36 44.63 25.42 44.35 25.42Z" fill="url(#paint_linear_2152_765_0)" fill-opacity="1.000000" fill-rule="nonzero"/>
	</g>
</svg>
