<svg width="139.000000" height="37.000000" viewBox="0 0 139 37" fill="none" xmlns="http://www.w3.org/2000/svg" xmlns:xlink="http://www.w3.org/1999/xlink">
	<desc>
			Created with Pixso.
	</desc>
	<defs>
		<clipPath id="clip2119_2736">
			<rect id="Frame" width="139.000000" height="37.000000" transform="translate(-0.004883 0.000000)" fill="white" fill-opacity="0"/>
		</clipPath>
	</defs>
	<rect id="Frame" width="139.000000" height="37.000000" transform="translate(-0.004883 0.000000)" fill="#FFFFFF" fill-opacity="0"/>
	<g clip-path="url(#clip2119_2736)">
		<path id="Vector" d="M41.57 11.86L44.96 11.86L44.96 25.43L41.57 25.43L41.57 11.86ZM46.3 20.31C46.3 16.95 48.37 14.95 51.58 14.95C54.78 14.95 56.85 16.95 56.85 20.31C56.85 23.66 54.82 25.68 51.58 25.68C48.33 25.68 46.3 23.72 46.3 20.31ZM53.46 20.31C53.46 18.46 52.73 17.38 51.58 17.38C50.43 17.38 49.7 18.49 49.7 20.31C49.7 22.12 50.41 23.22 51.58 23.22C52.74 23.22 53.46 22.19 53.46 20.32L53.46 20.31ZM58.13 26.09L61.38 26.09C61.53 26.43 61.79 26.72 62.12 26.9C62.45 27.08 62.83 27.15 63.2 27.1C64.49 27.1 65.17 26.41 65.17 25.4L65.17 23.52L65.1 23.52C64.83 24.1 64.39 24.58 63.84 24.91C63.29 25.23 62.66 25.39 62.02 25.35C59.55 25.35 57.91 23.49 57.91 20.27C57.91 17.06 59.47 15.04 62.06 15.04C62.72 15.01 63.37 15.19 63.93 15.54C64.49 15.89 64.92 16.4 65.18 17.01L65.18 15.14L68.56 15.14L68.56 25.32C68.56 27.77 66.38 29.29 63.17 29.29C60.18 29.29 58.32 27.96 58.13 26.1L58.13 26.09ZM65.18 20.3C65.18 18.66 64.42 17.63 63.23 17.63C62.03 17.63 61.3 18.65 61.3 20.3C61.3 21.94 62.02 22.87 63.23 22.87C64.43 22.87 65.18 21.96 65.18 20.31L65.18 20.3ZM69.83 20.3C69.83 16.94 71.91 14.94 75.11 14.94C78.32 14.94 80.4 16.94 80.4 20.3C80.4 23.65 78.37 25.67 75.11 25.67C71.85 25.67 69.83 23.72 69.83 20.31L69.83 20.3ZM77 20.3C77 18.45 76.26 17.36 75.11 17.36C73.96 17.36 73.3 18.49 73.3 20.32C73.3 22.14 74.01 23.23 75.16 23.23C76.31 23.23 77 22.19 77 20.32L77 20.3ZM81.69 12.7C81.68 12.36 81.77 12.03 81.96 11.74C82.14 11.45 82.4 11.23 82.71 11.09C83.03 10.95 83.37 10.91 83.71 10.97C84.05 11.03 84.36 11.18 84.6 11.42C84.85 11.65 85.02 11.95 85.1 12.28C85.17 12.61 85.15 12.96 85.02 13.28C84.9 13.59 84.68 13.86 84.4 14.06C84.12 14.25 83.79 14.36 83.45 14.37C83.22 14.38 82.99 14.35 82.78 14.27C82.57 14.2 82.37 14.08 82.21 13.93C82.04 13.77 81.91 13.58 81.82 13.38C81.73 13.17 81.69 12.95 81.69 12.72L81.69 12.7ZM81.69 15.16L85.07 15.16L85.07 25.43L81.69 25.43L81.69 15.16ZM97.35 20.3C97.35 23.65 95.85 25.57 93.28 25.57C92.62 25.61 91.97 25.45 91.4 25.11C90.84 24.77 90.39 24.26 90.12 23.66L90.06 23.66L90.06 28.72L86.67 28.72L86.67 15.14L90.06 15.14L90.06 16.97L90.12 16.97C90.38 16.36 90.82 15.85 91.38 15.49C91.94 15.14 92.59 14.96 93.26 14.99C95.85 15.04 97.4 16.96 97.4 20.32L97.35 20.3ZM93.97 20.3C93.97 18.66 93.21 17.62 92.03 17.62C90.85 17.62 90.09 18.67 90.08 20.3C90.07 21.92 90.85 22.96 92.03 22.96C93.21 22.96 93.97 21.94 93.97 20.32L93.97 20.3ZM103.16 14.93C105.97 14.93 107.67 16.25 107.75 18.36L104.67 18.36C104.67 17.63 104.06 17.17 103.13 17.17C102.19 17.17 101.77 17.53 101.77 18.06C101.77 18.58 102.15 18.75 102.9 18.91L105.07 19.35C107.13 19.78 108.01 20.61 108.01 22.17C108.01 24.29 106.06 25.66 103.18 25.66C100.31 25.66 98.42 24.29 98.28 22.2L101.54 22.2C101.64 22.96 102.25 23.41 103.24 23.41C104.23 23.41 104.68 23.08 104.68 22.55C104.68 22.01 104.37 21.9 103.56 21.73L101.61 21.31C99.59 20.9 98.53 19.84 98.53 18.27C98.55 16.26 100.36 14.95 103.16 14.95L103.16 14.93ZM119.3 25.41L116.04 25.41L116.04 23.5L115.97 23.5C115.79 24.14 115.4 24.7 114.85 25.09C114.31 25.48 113.64 25.67 112.97 25.63C112.46 25.66 111.95 25.58 111.47 25.4C110.99 25.21 110.55 24.93 110.19 24.56C109.83 24.19 109.56 23.76 109.38 23.28C109.21 22.79 109.14 22.28 109.18 21.77L109.18 15.14L112.57 15.14L112.57 21C112.57 22.22 113.2 22.87 114.25 22.87C114.49 22.87 114.74 22.82 114.96 22.72C115.19 22.62 115.39 22.47 115.55 22.29C115.71 22.1 115.83 21.89 115.9 21.66C115.97 21.42 116 21.18 115.96 20.93L115.96 15.14L119.35 15.14L119.3 25.41ZM120.94 15.14L124.21 15.14L124.21 17.12L124.27 17.12C124.45 16.48 124.84 15.93 125.37 15.53C125.91 15.14 126.56 14.94 127.22 14.95C127.89 14.89 128.56 15.09 129.1 15.51C129.63 15.92 129.99 16.52 130.09 17.19L130.16 17.19C130.37 16.52 130.79 15.93 131.37 15.53C131.94 15.12 132.64 14.92 133.34 14.95C133.8 14.93 134.26 15.01 134.69 15.19C135.11 15.36 135.5 15.62 135.82 15.95C136.14 16.27 136.38 16.67 136.54 17.1C136.69 17.53 136.76 17.98 136.72 18.44L136.72 25.43L133.34 25.43L133.34 19.33C133.34 18.22 132.83 17.7 131.89 17.7C131.68 17.7 131.47 17.74 131.27 17.83C131.08 17.91 130.91 18.04 130.77 18.19C130.63 18.35 130.52 18.54 130.46 18.74C130.4 18.94 130.38 19.15 130.41 19.36L130.41 25.43L127.2 25.43L127.2 19.29C127.2 18.26 126.69 17.7 125.76 17.7C125.55 17.7 125.34 17.75 125.14 17.83C124.95 17.92 124.77 18.05 124.63 18.21C124.49 18.36 124.39 18.55 124.32 18.75C124.26 18.95 124.24 19.17 124.26 19.38L124.26 25.43L120.88 25.43L120.94 15.14Z" fill="#FFFFFF" fill-opacity="1.000000" fill-rule="nonzero"/>
		<path id="Vector" d="M32.11 12.48C31.54 11.17 30.78 9.96 29.85 8.87C28.49 7.22 26.79 5.87 24.86 4.91C22.94 3.95 20.83 3.41 18.67 3.32C16.52 3.23 14.37 3.6 12.37 4.39C10.37 5.18 8.56 6.39 7.07 7.93C5.57 9.46 4.42 11.3 3.68 13.31C2.95 15.32 2.66 17.46 2.82 19.59C2.98 21.72 3.6 23.8 4.63 25.67C5.66 27.55 7.07 29.19 8.79 30.49C9.89 31.34 11.1 32.03 12.4 32.54C14.21 33.28 16.15 33.66 18.11 33.66C22.16 33.65 26.04 32.05 28.9 29.2C31.76 26.36 33.37 22.51 33.37 18.5C33.38 16.42 32.95 14.37 32.11 12.48ZM18.1 6.4C19.86 6.4 21.6 6.78 23.2 7.52C22.81 7.69 22.4 7.8 21.98 7.87C20.6 8.06 19.32 8.7 18.34 9.68C17.35 10.65 16.71 11.92 16.51 13.29C16.42 14.06 16.07 14.77 15.52 15.31C14.96 15.85 14.23 16.19 13.46 16.26C12.08 16.46 10.8 17.09 9.81 18.07C8.83 19.05 8.19 20.32 7.99 21.68C7.92 22.41 7.61 23.1 7.1 23.63C6.22 21.79 5.82 19.76 5.95 17.72C6.07 15.69 6.72 13.72 7.82 11.99C8.92 10.27 10.44 8.85 12.24 7.87C14.04 6.89 16.06 6.38 18.11 6.38L18.1 6.4ZM8.78 26.33C8.91 26.2 9.05 26.09 9.18 25.96C10.19 24.99 10.83 23.72 11.01 22.34C11.08 21.57 11.43 20.85 11.99 20.31C12.53 19.75 13.26 19.41 14.03 19.35C15.41 19.15 16.69 18.51 17.67 17.53C18.66 16.56 19.3 15.29 19.5 13.92C19.55 13.11 19.9 12.35 20.48 11.78C21.04 11.24 21.77 10.91 22.55 10.85C23.81 10.68 25 10.12 25.93 9.25C26.99 10.13 27.89 11.18 28.59 12.36C28.55 12.42 28.5 12.47 28.45 12.52C27.91 13.08 27.18 13.43 26.4 13.5C25.02 13.7 23.74 14.33 22.76 15.31C21.77 16.29 21.13 17.56 20.93 18.93C20.85 19.7 20.51 20.42 19.96 20.97C19.4 21.51 18.68 21.85 17.9 21.93C16.52 22.13 15.23 22.76 14.24 23.74C13.25 24.72 12.6 25.99 12.4 27.36C12.34 27.9 12.15 28.43 11.84 28.89C10.69 28.21 9.65 27.34 8.78 26.33ZM18.1 30.65C16.96 30.65 15.82 30.49 14.72 30.18C15.1 29.48 15.34 28.72 15.44 27.94C15.52 27.17 15.86 26.45 16.41 25.91C16.97 25.36 17.69 25.02 18.46 24.94C19.85 24.74 21.13 24.11 22.11 23.13C23.1 22.15 23.75 20.88 23.95 19.51C24.02 18.74 24.37 18.03 24.92 17.48C25.47 16.93 26.19 16.59 26.97 16.51C28.01 16.38 29 16 29.85 15.4C30.33 17.18 30.39 19.06 30.02 20.87C29.65 22.68 28.87 24.39 27.74 25.85C26.6 27.32 25.14 28.51 23.47 29.33C21.8 30.15 19.97 30.58 18.1 30.59L18.1 30.65Z" fill="#FFFFFF" fill-opacity="1.000000" fill-rule="nonzero"/>
	</g>
</svg>
