<svg width="48.000000" height="48.000000" viewBox="0 0 48 48" fill="none" xmlns="http://www.w3.org/2000/svg" xmlns:xlink="http://www.w3.org/1999/xlink">
	<desc>
			Created with Pixso.
	</desc>
	<defs>
		<clipPath id="clip2126_301">
			<rect id="Frame" width="48.000000" height="48.000000" fill="white" fill-opacity="0"/>
		</clipPath>
		<linearGradient id="paint_linear_2126_302_0" x1="33.122044" y1="14.113321" x2="11.162843" y2="34.288868" gradientUnits="userSpaceOnUse">
			<stop stop-color="#9DE8EE"/>
			<stop offset="0.000100" stop-color="#9DE8EE"/>
			<stop offset="0.490049" stop-color="#FA7C0B"/>
			<stop offset="1.000000" stop-color="#9F8CED"/>
		</linearGradient>
	</defs>
	<rect id="Frame" width="48.000000" height="48.000000" fill="#FFFFFF" fill-opacity="0"/>
	<g clip-path="url(#clip2126_301)">
		<path id="Vector" d="M10.5 6C8.51 6 6.6 6.79 5.19 8.19C3.79 9.6 3 11.51 3 13.5L3 34.5C3 36.48 3.79 38.39 5.19 39.8C6.6 41.2 8.51 42 10.5 42L24 42C24.39 42 24.77 41.84 25.06 41.56C25.34 41.27 25.5 40.89 25.5 40.5C25.5 40.1 25.34 39.72 25.06 39.43C24.77 39.15 24.39 39 24 39L10.5 39C9.3 39 8.16 38.52 7.31 37.68C6.47 36.83 6 35.69 6 34.5L6 18L42 18L42 25.5C42 25.89 42.15 26.27 42.43 26.56C42.72 26.84 43.1 27 43.5 27C43.89 27 44.27 26.84 44.56 26.56C44.84 26.27 45 25.89 45 25.5L45 13.5C45 11.51 44.2 9.6 42.8 8.19C41.39 6.79 39.48 6 37.5 6L10.5 6ZM10.5 13.5C10.89 13.5 11.27 13.34 11.56 13.06C11.84 12.77 12 12.39 12 12C12 11.6 11.84 11.22 11.56 10.93C11.27 10.65 10.89 10.5 10.5 10.5C10.1 10.5 9.72 10.65 9.43 10.93C9.15 11.22 9 11.6 9 12C9 12.39 9.15 12.77 9.43 13.06C9.72 13.34 10.1 13.5 10.5 13.5ZM15 13.5C15.39 13.5 15.77 13.34 16.06 13.06C16.34 12.77 16.5 12.39 16.5 12C16.5 11.6 16.34 11.22 16.06 10.93C15.77 10.65 15.39 10.5 15 10.5C14.6 10.5 14.22 10.65 13.93 10.93C13.65 11.22 13.5 11.6 13.5 12C13.5 12.39 13.65 12.77 13.93 13.06C14.22 13.34 14.6 13.5 15 13.5ZM21 12C21 12.39 20.84 12.77 20.56 13.06C20.27 13.34 19.89 13.5 19.5 13.5C19.1 13.5 18.72 13.34 18.43 13.06C18.15 12.77 18 12.39 18 12C18 11.6 18.15 11.22 18.43 10.93C18.72 10.65 19.1 10.5 19.5 10.5C19.89 10.5 20.27 10.65 20.56 10.93C20.84 11.22 21 11.6 21 12Z" fill="url(#paint_linear_2126_302_0)" fill-opacity="1.000000" fill-rule="evenodd"/>
		<path id="Vector" d="M37.5 30C37.1 30 36.72 30.15 36.43 30.43C36.15 30.72 36 31.1 36 31.5C36 31.89 36.15 32.27 36.43 32.56C36.72 32.84 37.1 33 37.5 33L40.37 33L36.98 37.24L33.47 36.07C33.2 35.98 32.92 35.97 32.65 36.04C32.38 36.1 32.13 36.24 31.93 36.43L28.93 39.43C28.66 39.72 28.51 40.1 28.51 40.49C28.52 40.88 28.67 41.26 28.95 41.54C29.23 41.82 29.61 41.97 30 41.98C30.39 41.98 30.77 41.83 31.06 41.56L33.4 39.21L37.02 40.42C37.31 40.52 37.63 40.52 37.92 40.43C38.21 40.35 38.47 40.17 38.66 39.93L42 35.73L42 37.5C42 37.89 42.15 38.27 42.43 38.56C42.72 38.84 43.1 39 43.5 39C43.89 39 44.27 38.84 44.56 38.56C44.84 38.27 45 37.89 45 37.5L45 31.5C45 31.1 44.84 30.72 44.56 30.43C44.27 30.15 43.89 30 43.5 30L37.5 30Z" fill="#FFFFFF" fill-opacity="1.000000" fill-rule="evenodd"/>
	</g>
</svg>
