<svg width="126.000000" height="28.000000" viewBox="0 0 126 28" fill="none" xmlns="http://www.w3.org/2000/svg" xmlns:xlink="http://www.w3.org/1999/xlink">
	<desc>
			Created with Pixso.
	</desc>
	<defs>
		<linearGradient id="paint_linear_3_379_0" x1="158.874954" y1="1.026611" x2="57.363480" y2="13.358765" gradientUnits="userSpaceOnUse">
			<stop stop-color="#EBC600"/>
			<stop offset="0.250000" stop-color="#CC680E"/>
			<stop offset="0.504983" stop-color="#F87500"/>
			<stop offset="1.000000" stop-color="#9F8CED"/>
		</linearGradient>
	</defs>
	<g opacity="0.800000">
		<path id="Description" d="M53.19 28C50.8 28 49.12 26.73 49.12 24.78C49.12 22.85 50.8 21.59 53.19 21.59C55.32 21.59 56.89 22.65 57.07 24.05L55.83 24.05C55.68 23.33 54.71 22.56 53.19 22.56C51.46 22.56 50.34 23.49 50.34 24.78C50.34 26.08 51.46 27.02 53.19 27.02C54.71 27.02 55.68 26.24 55.83 25.51L57.07 25.51C56.9 26.93 55.32 28 53.19 28ZM8.81 27.82L8.81 21.75L9.99 21.75L9.99 27.82L8.81 27.82ZM15.44 22.73L15.44 21.75L22.64 21.75L22.64 22.73L19.63 22.73L19.63 27.82L18.46 27.82L18.46 22.73L15.44 22.73ZM36.14 27.82L39.6 21.75L41.1 21.75L44.54 27.82L43.28 27.82L42.52 26.44L38.17 26.44L37.41 27.82L36.14 27.82ZM61.64 27.82L65.1 21.75L66.6 21.75L70.04 27.82L68.78 27.82L68.02 26.44L63.68 26.44L62.91 27.82L61.64 27.82ZM75.41 27.82L75.41 21.75L79.48 21.75C81.38 21.75 82.78 23.03 82.78 24.78C82.78 26.53 81.38 27.82 79.48 27.82L75.41 27.82ZM88.4 27.82L88.4 21.75L94.55 21.75L94.55 22.63L89.58 22.63L89.58 24.37L94.37 24.37L94.37 25.19L89.58 25.19L89.58 26.93L94.55 26.93L94.55 27.82L88.4 27.82ZM100.17 27.82L100.17 21.75L101.95 21.75L104.85 26.58L107.73 21.75L109.5 21.75L109.5 27.82L108.33 27.82L108.33 22.85L105.39 27.82L104.29 27.82L101.35 22.85L101.35 27.82L100.17 27.82ZM118.27 27.82L118.27 25.78L114.74 21.75L116.21 21.75L118.86 24.82L121.51 21.75L122.97 21.75L119.45 25.78L119.45 27.82L118.27 27.82ZM38.65 25.58L42.04 25.58L40.35 22.5L38.65 25.58ZM64.15 25.58L67.54 25.58L65.85 22.5L64.15 25.58ZM76.59 26.85L79.02 26.85C80.57 26.85 81.56 26.03 81.56 24.78C81.56 23.54 80.57 22.73 79.02 22.73L76.59 22.73L76.59 26.85Z" fill="#0F015B" fill-opacity="1.000000" fill-rule="evenodd"/>
	</g>
	<path id="Title" d="M42.52 8.47C42.52 2.99 45.64 0 52.92 0C59.52 0 62.83 2.5 63.25 7.27L58.93 7.27C58.53 4.6 56.47 3.56 52.92 3.56C48.6 3.56 46.78 5.1 46.78 8.47C46.78 11.87 48.62 13.43 52.92 13.43C56.45 13.43 58.53 12.37 58.93 9.68L63.25 9.68C62.83 14.47 59.52 17 52.92 17C45.64 17 42.52 13.97 42.52 8.47ZM94.62 17C87.34 17 84.22 13.97 84.22 8.47C84.22 2.99 87.34 0 94.62 0C101.88 0 105.02 3.02 105.02 8.47C105.02 13.95 101.88 17 94.62 17ZM106.53 0.09L122.98 0.09C124.64 0.09 126 1.69 126 3.66L126 8.43L120.94 8.43L120.94 4.44L114.62 4.44L126 16.76L118.83 16.76L110.89 8.2L110.89 16.76L106.53 16.76L106.53 0.09ZM18.06 0.23L22.83 0.23L14.32 16.76L8.5 16.76L0 0.23L4.77 0.23L11.41 13.62L18.06 0.23ZM28.1 3.61L41.34 3.61L41.34 0.23L23.85 0.23L23.85 16.76L41.34 16.76L41.34 13.38L28.1 13.38L28.1 10.03L41.34 10.03L41.34 6.96L28.1 6.96L28.1 3.61ZM83.84 3.8L83.84 0.23L63.51 0.23L63.51 3.8L71.54 3.8L71.54 16.76L75.8 16.76L75.8 3.8L83.84 3.8ZM94.62 13.43C99.04 13.43 100.77 11.85 100.77 8.47C100.77 5.12 99.06 3.56 94.62 3.56C90.17 3.56 88.47 5.1 88.47 8.47C88.47 11.87 90.2 13.43 94.62 13.43Z" fill="url(#paint_linear_3_379_0)" fill-opacity="1.000000" fill-rule="evenodd"/>
</svg>
