<svg width="798.000000" height="361.000000" viewBox="0 0 798 361" fill="none" xmlns="http://www.w3.org/2000/svg" xmlns:xlink="http://www.w3.org/1999/xlink">
	<desc>
			Created with Pixso.
	</desc>
	<defs>
		<clipPath id="clip2126_334">
			<rect id="Frame" width="648.000000" height="486.000000" transform="translate(75.000000 -64.000000)" fill="white" fill-opacity="0"/>
		</clipPath>
		<clipPath id="clip2126_336">
			<rect id="searching-2194247-0" width="700.000000" height="550.000000" transform="matrix(-1 0 0 1 775 -95)" fill="white" fill-opacity="0"/>
		</clipPath>
		<clipPath id="clip2126_333">
			<rect id="Frame" width="798.000000" height="361.000000" fill="white" fill-opacity="0"/>
		</clipPath>
		<linearGradient id="paint_linear_2126_337_0" x1="547.577454" y1="108.185654" x2="595.498779" y2="141.963654" gradientUnits="userSpaceOnUse">
			<stop stop-color="#9DE8EE"/>
			<stop offset="0.000100" stop-color="#9DE8EE"/>
			<stop offset="0.490049" stop-color="#FA7C0B"/>
			<stop offset="1.000000" stop-color="#9F8CED"/>
		</linearGradient>
		<linearGradient id="paint_linear_2126_338_0" x1="486.823303" y1="113.799644" x2="501.751556" y2="124.699898" gradientUnits="userSpaceOnUse">
			<stop stop-color="#9DE8EE"/>
			<stop offset="0.000100" stop-color="#9DE8EE"/>
			<stop offset="0.490049" stop-color="#FA7C0B"/>
			<stop offset="1.000000" stop-color="#9F8CED"/>
		</linearGradient>
		<linearGradient id="paint_linear_2126_339_0" x1="551.871826" y1="117.138718" x2="566.408752" y2="122.167526" gradientUnits="userSpaceOnUse">
			<stop stop-color="#9DE8EE"/>
			<stop offset="0.000100" stop-color="#9DE8EE"/>
			<stop offset="0.490049" stop-color="#FA7C0B"/>
			<stop offset="1.000000" stop-color="#9F8CED"/>
		</linearGradient>
		<linearGradient id="paint_linear_2126_340_0" x1="591.666321" y1="105.884895" x2="595.361023" y2="123.703262" gradientUnits="userSpaceOnUse">
			<stop stop-color="#9DE8EE"/>
			<stop offset="0.000100" stop-color="#9DE8EE"/>
			<stop offset="0.490049" stop-color="#FA7C0B"/>
			<stop offset="1.000000" stop-color="#9F8CED"/>
		</linearGradient>
		<linearGradient id="paint_linear_2126_341_0" x1="541.118530" y1="118.407944" x2="544.951965" y2="120.501526" gradientUnits="userSpaceOnUse">
			<stop stop-color="#9DE8EE"/>
			<stop offset="0.000100" stop-color="#9DE8EE"/>
			<stop offset="0.490049" stop-color="#FA7C0B"/>
			<stop offset="1.000000" stop-color="#9F8CED"/>
		</linearGradient>
		<linearGradient id="paint_linear_2126_342_0" x1="530.136902" y1="114.931892" x2="532.551636" y2="116.561989" gradientUnits="userSpaceOnUse">
			<stop stop-color="#9DE8EE"/>
			<stop offset="0.000100" stop-color="#9DE8EE"/>
			<stop offset="0.490049" stop-color="#FA7C0B"/>
			<stop offset="1.000000" stop-color="#9F8CED"/>
		</linearGradient>
		<linearGradient id="paint_linear_2126_343_0" x1="537.051758" y1="110.277771" x2="550.821045" y2="115.678467" gradientUnits="userSpaceOnUse">
			<stop stop-color="#9DE8EE"/>
			<stop offset="0.000100" stop-color="#9DE8EE"/>
			<stop offset="0.490049" stop-color="#FA7C0B"/>
			<stop offset="1.000000" stop-color="#9F8CED"/>
		</linearGradient>
		<linearGradient id="paint_linear_2126_344_0" x1="521.116760" y1="105.845543" x2="522.073914" y2="106.532997" gradientUnits="userSpaceOnUse">
			<stop stop-color="#9DE8EE"/>
			<stop offset="0.000100" stop-color="#9DE8EE"/>
			<stop offset="0.490049" stop-color="#FA7C0B"/>
			<stop offset="1.000000" stop-color="#9F8CED"/>
		</linearGradient>
		<linearGradient id="paint_linear_2126_345_0" x1="609.078735" y1="107.539383" x2="616.446655" y2="126.132889" gradientUnits="userSpaceOnUse">
			<stop stop-color="#9DE8EE"/>
			<stop offset="0.000100" stop-color="#9DE8EE"/>
			<stop offset="0.490049" stop-color="#FA7C0B"/>
			<stop offset="1.000000" stop-color="#9F8CED"/>
		</linearGradient>
		<linearGradient id="paint_linear_2126_346_0" x1="564.346802" y1="128.776688" x2="574.949341" y2="147.621521" gradientUnits="userSpaceOnUse">
			<stop stop-color="#9DE8EE"/>
			<stop offset="0.000100" stop-color="#9DE8EE"/>
			<stop offset="0.490049" stop-color="#FA7C0B"/>
			<stop offset="1.000000" stop-color="#9F8CED"/>
		</linearGradient>
		<linearGradient id="paint_linear_2126_347_0" x1="503.378174" y1="147.928299" x2="549.347473" y2="192.843307" gradientUnits="userSpaceOnUse">
			<stop stop-color="#9DE8EE"/>
			<stop offset="0.000100" stop-color="#9DE8EE"/>
			<stop offset="0.490049" stop-color="#FA7C0B"/>
			<stop offset="1.000000" stop-color="#9F8CED"/>
		</linearGradient>
		<linearGradient id="paint_linear_2126_348_0" x1="547.035400" y1="100.413971" x2="580.801636" y2="103.104126" gradientUnits="userSpaceOnUse">
			<stop stop-color="#9DE8EE"/>
			<stop offset="0.000100" stop-color="#9DE8EE"/>
			<stop offset="0.490049" stop-color="#FA7C0B"/>
			<stop offset="1.000000" stop-color="#9F8CED"/>
		</linearGradient>
		<linearGradient id="paint_linear_2126_349_0" x1="496.963562" y1="114.072205" x2="534.373108" y2="172.105637" gradientUnits="userSpaceOnUse">
			<stop stop-color="#9DE8EE"/>
			<stop offset="0.000100" stop-color="#9DE8EE"/>
			<stop offset="0.490049" stop-color="#FA7C0B"/>
			<stop offset="1.000000" stop-color="#9F8CED"/>
		</linearGradient>
		<linearGradient id="paint_linear_2126_350_0" x1="517.621704" y1="109.864029" x2="519.829651" y2="115.563622" gradientUnits="userSpaceOnUse">
			<stop stop-color="#9DE8EE"/>
			<stop offset="0.000100" stop-color="#9DE8EE"/>
			<stop offset="0.490049" stop-color="#FA7C0B"/>
			<stop offset="1.000000" stop-color="#9F8CED"/>
		</linearGradient>
		<linearGradient id="paint_linear_2126_351_0" x1="354.094788" y1="61.055031" x2="411.049194" y2="88.269562" gradientUnits="userSpaceOnUse">
			<stop stop-color="#9DE8EE"/>
			<stop offset="0.000100" stop-color="#9DE8EE"/>
			<stop offset="0.490049" stop-color="#FA7C0B"/>
			<stop offset="1.000000" stop-color="#9F8CED"/>
		</linearGradient>
		<linearGradient id="paint_linear_2126_352_0" x1="362.246674" y1="61.294529" x2="373.454773" y2="74.875801" gradientUnits="userSpaceOnUse">
			<stop stop-color="#9DE8EE"/>
			<stop offset="0.000100" stop-color="#9DE8EE"/>
			<stop offset="0.490049" stop-color="#FA7C0B"/>
			<stop offset="1.000000" stop-color="#9F8CED"/>
		</linearGradient>
		<linearGradient id="paint_linear_2126_353_0" x1="340.158600" y1="64.624313" x2="344.992279" y2="84.026123" gradientUnits="userSpaceOnUse">
			<stop stop-color="#9DE8EE"/>
			<stop offset="0.000100" stop-color="#9DE8EE"/>
			<stop offset="0.490049" stop-color="#FA7C0B"/>
			<stop offset="1.000000" stop-color="#9F8CED"/>
		</linearGradient>
		<linearGradient id="paint_linear_2126_354_0" x1="388.769989" y1="78.621277" x2="398.725159" y2="80.561447" gradientUnits="userSpaceOnUse">
			<stop stop-color="#9DE8EE"/>
			<stop offset="0.000100" stop-color="#9DE8EE"/>
			<stop offset="0.490049" stop-color="#FA7C0B"/>
			<stop offset="1.000000" stop-color="#9F8CED"/>
		</linearGradient>
		<linearGradient id="paint_linear_2126_355_0" x1="406.072754" y1="97.219223" x2="412.821411" y2="114.393089" gradientUnits="userSpaceOnUse">
			<stop stop-color="#9DE8EE"/>
			<stop offset="0.000100" stop-color="#9DE8EE"/>
			<stop offset="0.490049" stop-color="#FA7C0B"/>
			<stop offset="1.000000" stop-color="#9F8CED"/>
		</linearGradient>
		<linearGradient id="paint_linear_2126_356_0" x1="351.092346" y1="99.237396" x2="393.135193" y2="137.161926" gradientUnits="userSpaceOnUse">
			<stop stop-color="#9DE8EE"/>
			<stop offset="0.000100" stop-color="#9DE8EE"/>
			<stop offset="0.490049" stop-color="#FA7C0B"/>
			<stop offset="1.000000" stop-color="#9F8CED"/>
		</linearGradient>
		<linearGradient id="paint_linear_2126_357_0" x1="390.405579" y1="93.881348" x2="396.999878" y2="96.320717" gradientUnits="userSpaceOnUse">
			<stop stop-color="#9DE8EE"/>
			<stop offset="0.000100" stop-color="#9DE8EE"/>
			<stop offset="0.490049" stop-color="#FA7C0B"/>
			<stop offset="1.000000" stop-color="#9F8CED"/>
		</linearGradient>
		<linearGradient id="paint_linear_2126_358_0" x1="352.162292" y1="96.284859" x2="358.280426" y2="108.328545" gradientUnits="userSpaceOnUse">
			<stop stop-color="#9DE8EE"/>
			<stop offset="0.000100" stop-color="#9DE8EE"/>
			<stop offset="0.490049" stop-color="#FA7C0B"/>
			<stop offset="1.000000" stop-color="#9F8CED"/>
		</linearGradient>
		<linearGradient id="paint_linear_2126_359_0" x1="372.147369" y1="145.716782" x2="375.354675" y2="150.817673" gradientUnits="userSpaceOnUse">
			<stop stop-color="#9DE8EE"/>
			<stop offset="0.000100" stop-color="#9DE8EE"/>
			<stop offset="0.490049" stop-color="#FA7C0B"/>
			<stop offset="1.000000" stop-color="#9F8CED"/>
		</linearGradient>
		<linearGradient id="paint_linear_2126_360_0" x1="333.435486" y1="129.859573" x2="336.025513" y2="134.386673" gradientUnits="userSpaceOnUse">
			<stop stop-color="#9DE8EE"/>
			<stop offset="0.000100" stop-color="#9DE8EE"/>
			<stop offset="0.490049" stop-color="#FA7C0B"/>
			<stop offset="1.000000" stop-color="#9F8CED"/>
		</linearGradient>
		<linearGradient id="paint_linear_2126_361_0" x1="335.376099" y1="165.875031" x2="482.213379" y2="269.098877" gradientUnits="userSpaceOnUse">
			<stop stop-color="#9DE8EE"/>
			<stop offset="0.000100" stop-color="#9DE8EE"/>
			<stop offset="0.490049" stop-color="#FA7C0B"/>
			<stop offset="1.000000" stop-color="#9F8CED"/>
		</linearGradient>
		<linearGradient id="paint_linear_2126_362_0" x1="292.915527" y1="307.799805" x2="407.723175" y2="309.338867" gradientUnits="userSpaceOnUse">
			<stop stop-color="#9DE8EE"/>
			<stop offset="0.000100" stop-color="#9DE8EE"/>
			<stop offset="0.490049" stop-color="#FA7C0B"/>
			<stop offset="1.000000" stop-color="#9F8CED"/>
		</linearGradient>
		<linearGradient id="paint_linear_2126_363_0" x1="395.199738" y1="100.486931" x2="398.015717" y2="103.611702" gradientUnits="userSpaceOnUse">
			<stop stop-color="#9DE8EE"/>
			<stop offset="0.000100" stop-color="#9DE8EE"/>
			<stop offset="0.490049" stop-color="#FA7C0B"/>
			<stop offset="1.000000" stop-color="#9F8CED"/>
		</linearGradient>
	</defs>
	<g clip-path="url(#clip2126_333)">
		<rect id="Frame" width="648.000000" height="486.000000" transform="translate(75.000000 -64.000000)" fill="#FFFFFF" fill-opacity="0"/>
		<g clip-path="url(#clip2126_334)">
			<path id="Vector" d="M723 -64L723 422L75 422L75 -64L723 -64ZM1128 -469L-330 -469L-330 827L1128 827L1128 -469Z" fill="#4C4C4C" fill-opacity="1.000000" fill-rule="nonzero"/>
		</g>
		<rect id="searching-2194247-0" width="700.000000" height="550.000000" transform="matrix(-1 0 0 1 775 -95)" fill="#FFFFFF" fill-opacity="0"/>
		<g clip-path="url(#clip2126_336)">
			<path id="Vector" d="M521.75 102.66L521.76 102.66C521.77 102.66 521.78 102.66 521.8 102.65L521.8 102.65C523.01 102.04 524.24 101.49 525.51 101.02C526.76 100.54 528.06 100.08 529.32 99.71L529.22 99.73L529.24 99.73C529.27 99.73 529.3 99.72 529.33 99.72L529.35 99.71C536.02 97.62 542.95 96.45 549.93 96.24C553.42 96.14 556.9 96.25 560.37 96.57L570.88 97.46C577.89 98.03 584.92 98.43 591.94 98.88C598.96 99.3 605.98 99.77 612.99 100.35L612.84 99.81C611.59 100.71 610.46 101.75 609.45 102.91C608.46 104.08 607.61 105.37 606.93 106.74C606.26 108.13 605.74 109.57 605.36 111.06C605 112.55 604.77 114.07 604.67 115.6C604.5 118.66 604.71 121.73 605.28 124.73C605.83 127.75 606.68 130.71 607.84 133.56L608.68 132.48C603.74 131.55 598.81 130.61 593.87 129.71L579.07 127L579.87 127.72L579.77 127.41L579.8 127.49C579.08 125.23 577.61 123.28 575.62 121.97C573.65 120.67 571.31 120.03 568.94 120.17C566.57 120.32 564.32 121.27 562.56 122.87C562.33 123.05 562.12 123.26 561.94 123.49L561.37 124.17C561.03 124.64 560.71 125.13 560.42 125.64C560.15 126.15 559.96 126.67 559.73 127.18C559.62 127.44 559.5 127.69 559.4 127.95L559.16 128.74C557.98 132.94 557.53 137.31 557.82 141.66C558.01 145.95 558.61 150.21 559.62 154.39L560.36 153.65L550.4 151.57L540.43 149.57C540.4 149.57 540.38 149.57 540.35 149.59C540.33 149.6 540.32 149.62 540.31 149.65C540.31 149.67 540.31 149.7 540.33 149.72C540.34 149.74 540.36 149.76 540.38 149.76L550.22 152.34L560.08 154.85C560.18 154.88 560.28 154.88 560.38 154.85C560.48 154.82 560.57 154.77 560.65 154.7C560.72 154.63 560.77 154.55 560.81 154.45C560.84 154.35 560.84 154.25 560.83 154.15L560.82 154.11C560.02 149.99 559.57 145.8 559.46 141.61C559.28 137.47 559.81 133.32 561.02 129.36L561.25 128.63C561.34 128.4 561.45 128.17 561.55 127.94C561.77 127.49 561.94 127.01 562.18 126.59C562.45 126.2 562.66 125.76 562.97 125.4L563.43 124.86C563.58 124.68 563.74 124.51 563.93 124.37C565.36 123.11 567.17 122.37 569.07 122.27C570.98 122.16 572.87 122.67 574.47 123.72C576.06 124.76 577.25 126.32 577.84 128.13L577.88 128.22C577.88 128.24 577.89 128.27 577.9 128.29L577.97 128.44C578.03 128.59 578.14 128.72 578.27 128.82C578.4 128.92 578.55 128.99 578.71 129.02L593.55 131.53C598.5 132.38 603.45 133.18 608.41 134C608.54 134.02 608.68 134 608.82 133.95C608.94 133.9 609.06 133.82 609.14 133.71C609.23 133.6 609.28 133.47 609.3 133.33C609.32 133.19 609.3 133.05 609.24 132.92C608.07 130.2 607.15 127.38 606.5 124.49C605.83 121.59 605.53 118.62 605.6 115.65C605.65 114.17 605.83 112.69 606.13 111.24C606.44 109.79 606.92 108.39 607.55 107.05C608.2 105.71 609 104.47 609.95 103.33C610.91 102.2 612 101.18 613.18 100.29L613.19 100.29C613.24 100.25 613.27 100.2 613.29 100.14C613.31 100.09 613.31 100.03 613.3 99.97C613.28 99.91 613.24 99.86 613.2 99.82C613.15 99.78 613.09 99.76 613.03 99.76C606.02 99.19 599.02 98.5 592.03 97.77C585.03 97.06 578.03 96.31 571.02 95.72L560.51 94.87C556.97 94.57 553.41 94.52 549.87 94.71C546.32 94.91 542.8 95.37 539.32 96.1C535.85 96.8 532.43 97.78 529.12 99.02L529.24 99L529.22 99L529.19 99.01C529.17 99.01 529.14 99.01 529.11 99.02C527.8 99.49 526.57 100.01 525.32 100.57C524.07 101.13 522.87 101.76 521.71 102.48L521.76 102.46L521.75 102.46C521.72 102.47 521.7 102.48 521.68 102.49C521.66 102.51 521.65 102.54 521.65 102.56C521.65 102.59 521.66 102.61 521.68 102.63C521.7 102.65 521.72 102.66 521.75 102.66L521.75 102.66Z" fill="url(#paint_linear_2126_337_0)" fill-opacity="1.000000" fill-rule="nonzero"/>
			<path id="Vector" d="M478.76 128.86C479.32 126.06 480.44 123.39 482.06 121.03C482.87 119.9 483.8 118.86 484.84 117.93C485.88 117.02 487.01 116.19 488.19 115.47C490.63 114.04 493.23 112.91 495.94 112.11C498.69 111.28 501.49 110.67 504.34 110.28L504.39 110.28C505.36 110.01 506.33 109.72 507.3 109.41C506.28 109.46 505.28 109.53 504.27 109.62L504.33 109.62C501.36 109.49 498.39 109.77 495.5 110.46C492.56 111.12 489.75 112.25 487.18 113.82C484.56 115.4 482.38 117.61 480.84 120.25C479.35 122.87 478.63 125.85 478.76 128.86Z" fill="url(#paint_linear_2126_338_0)" fill-opacity="1.000000" fill-rule="nonzero"/>
			<path id="Vector" d="M571.81 120.77C570.09 120.1 568.36 119.53 566.62 119C564.88 118.47 563.13 117.98 561.37 117.54C559.61 117.06 557.84 116.68 556.08 116.26C554.3 115.89 552.52 115.5 550.74 115.18L550.32 115.11L550.06 115.31C549.33 115.88 548.65 116.51 548.04 117.21C547.43 117.88 546.88 118.58 546.37 119.33C545.87 120.06 545.42 120.83 545.02 121.63C544.62 122.42 544.28 123.24 544 124.09C544.52 123.37 545.04 122.67 545.59 122C546.14 121.33 546.69 120.66 547.27 120.05C547.87 119.44 548.47 118.84 549.1 118.28C549.72 117.74 550.36 117.24 551.03 116.76L550.36 116.89C552.11 117.36 553.88 117.76 555.65 118.17C557.43 118.55 559.2 118.95 560.99 119.27C562.77 119.61 564.56 119.91 566.36 120.16C568.16 120.43 569.98 120.64 571.81 120.77Z" fill="url(#paint_linear_2126_339_0)" fill-opacity="1.000000" fill-rule="nonzero"/>
			<path id="Vector" d="M596.73 98.71C594.63 100.66 592.98 103.03 591.89 105.67C590.75 108.31 590.03 111.12 589.76 113.98C589.53 116.84 589.71 119.72 590.28 122.52C590.35 122.87 590.4 123.23 590.49 123.57L590.78 124.6L591.39 126.63C591.89 127.96 592.47 129.25 593.08 130.51C592.88 129.1 592.56 127.75 592.33 126.39L592.04 124.34L591.88 123.32C591.84 122.98 591.83 122.64 591.8 122.3C591.75 121.61 591.69 120.93 591.62 120.26C591.57 119.58 591.6 118.9 591.58 118.22C591.55 116.86 591.6 115.51 591.72 114.16C591.96 111.46 592.5 108.8 593.32 106.22C594.14 103.58 595.29 101.06 596.73 98.71Z" fill="url(#paint_linear_2126_340_0)" fill-opacity="1.000000" fill-rule="nonzero"/>
			<path id="Vector" d="M543.47 119.16C542.01 118.61 540.53 118.07 539.04 117.56C539.12 118.17 539.17 118.78 539.17 119.39C540.44 119.79 541.73 120.17 543.02 120.54C543.89 120.8 544.77 121.05 545.65 121.3C545.77 121.11 545.89 120.93 546.01 120.77C546.13 120.59 546.26 120.42 546.37 120.27C545.4 119.88 544.44 119.52 543.47 119.16Z" fill="url(#paint_linear_2126_341_0)" fill-opacity="1.000000" fill-rule="nonzero"/>
			<path id="Vector" d="M528.83 116.02C529.96 116.41 531.08 116.8 532.21 117.18L532.22 117.18C532.57 116.62 532.98 116.1 533.44 115.63L533.03 115.49C531.77 115.08 530.52 114.67 529.26 114.27C529.11 114.9 528.96 115.49 528.83 116.02Z" fill="url(#paint_linear_2126_342_0)" fill-opacity="1.000000" fill-rule="nonzero"/>
			<path id="Vector" d="M535.21 109.9C533.34 109.29 531.48 108.69 529.6 108.1C529.8 108.73 529.9 109.38 529.89 110.03C531.46 110.59 533.05 111.12 534.63 111.66C538.13 112.8 541.65 113.93 545.2 114.94C546.85 115.42 548.5 115.89 550.16 116.33C552.08 116.84 553.99 117.32 555.93 117.74C555.16 117.39 554.39 117.05 553.61 116.72C553.6 116.72 553.6 116.72 553.59 116.71C550.97 115.59 548.32 114.56 545.66 113.57C542.2 112.26 538.71 111.08 535.21 109.9Z" fill="url(#paint_linear_2126_343_0)" fill-opacity="1.000000" fill-rule="nonzero"/>
			<path id="Vector" d="M520.59 106.61C520.75 106.67 520.91 106.74 521.07 106.79C521.47 106.45 521.93 106.18 522.43 105.98C521.92 105.84 521.42 105.7 520.92 105.56C520.8 105.95 520.69 106.31 520.59 106.61Z" fill="url(#paint_linear_2126_344_0)" fill-opacity="1.000000" fill-rule="nonzero"/>
			<path id="Vector" d="M608.54 133.23C629.52 114.09 613.01 100.06 613.01 100.06C598.34 110.68 608.54 133.23 608.54 133.23Z" fill="url(#paint_linear_2126_345_0)" fill-opacity="1.000000" fill-rule="nonzero"/>
			<path id="Vector" d="M560.22 154.25C577.53 159.41 578.89 128 578.89 128C578.87 127.94 578.84 127.88 578.83 127.81C576.22 119.82 565.06 118.78 561.21 126.26C556 136.39 560.22 154.25 560.22 154.25Z" fill="url(#paint_linear_2126_346_0)" fill-opacity="1.000000" fill-rule="nonzero"/>
			<path id="Vector" d="M547.16 150.5C550.03 157.56 552.96 164.55 555.66 171.61C558.42 178.58 560.75 185.71 562.62 192.97C563.07 194.75 563.4 196.56 563.64 198.38C563.9 200.14 563.89 201.93 563.62 203.69C563.47 204.52 563.19 205.31 562.79 206.05C562.37 206.75 561.8 207.33 561.11 207.77C559.54 208.56 557.75 208.83 556.02 208.53C552.33 207.89 548.78 206.61 545.53 204.75C544.71 204.3 543.88 203.85 543.07 203.37L540.66 201.87C539.04 200.91 537.52 199.78 535.96 198.72C534.4 197.65 532.93 196.47 531.41 195.36L529.21 193.58C528.48 192.99 527.73 192.43 527.02 191.81C525.6 190.57 524.12 189.42 522.74 188.14L520.64 186.27L518.59 184.34C515.86 181.76 513.24 179.08 510.73 176.3C508.19 173.53 505.76 170.68 503.39 167.78C498.63 161.96 494.19 155.88 490.11 149.56C488.06 146.4 486.1 143.18 484.21 139.9C482.33 136.62 480.52 133.28 478.88 129.86L478.51 129.99C480.73 137.34 483.73 144.43 487.45 151.14C491.12 157.91 495.36 164.35 500.12 170.4C504.93 176.43 510.27 182.01 516.08 187.09L518.26 188.98L520.5 190.8C521.99 192.03 523.54 193.17 525.09 194.3C526.65 195.44 528.27 196.49 529.87 197.55C531.52 198.54 533.12 199.59 534.79 200.53C536.47 201.47 538.12 202.44 539.83 203.31C541.52 204.21 543.2 205.11 544.93 205.94C548.37 207.72 552.05 209.02 555.84 209.79C557.87 210.22 559.98 210.01 561.87 209.18C562.85 208.69 563.7 207.97 564.35 207.08C564.95 206.21 565.42 205.24 565.72 204.22C566.26 202.25 566.49 200.22 566.42 198.19C566.36 196.22 566.17 194.26 565.83 192.32C565.13 188.5 564.11 184.75 562.78 181.11C561.51 177.48 560.05 173.92 558.47 170.44C557.7 168.68 556.85 166.97 556.01 165.25C555.17 163.53 554.28 161.84 553.37 160.16C551.55 156.8 549.63 153.5 547.51 150.31L547.16 150.5Z" fill="url(#paint_linear_2126_347_0)" fill-opacity="1.000000" fill-rule="nonzero"/>
			<path id="Vector" d="M593.35 104.13C588 103.32 582.63 102.71 577.26 102.17C571.89 101.61 566.51 101.17 561.13 100.75C555.75 100.37 550.36 100.01 544.97 99.76C539.58 99.51 534.18 99.32 528.77 99.33C534.12 100.14 539.48 100.75 544.85 101.29C550.23 101.85 555.6 102.29 560.99 102.71C566.37 103.09 571.75 103.45 577.15 103.69C582.54 103.95 587.94 104.13 593.35 104.13Z" fill="url(#paint_linear_2126_348_0)" fill-opacity="1.000000" fill-rule="nonzero"/>
			<path id="Vector" d="M527.62 194.28C528.39 187.46 529.13 180.62 529.79 173.78L530.05 171.21L530.17 169.93C530.19 169.83 530.19 169.7 530.21 169.62C530.23 169.56 530.25 169.5 530.27 169.44C530.33 169.26 530.4 169.1 530.49 168.93C531.24 167.5 532.24 166.06 533.16 164.62C535.05 161.75 536.86 158.81 538.49 155.74C539.29 154.2 540.05 152.64 540.71 151.02C541.37 149.38 541.92 147.75 542.48 146.14C543.63 142.9 544.76 139.66 545.85 136.41L547.5 131.54L547.91 130.32C548.08 129.86 548.18 129.38 548.24 128.89C548.35 127.91 548.21 126.91 547.83 125.99C547.45 125.01 546.73 124.2 545.8 123.72C544.84 123.29 543.76 123.25 542.77 123.59C541.07 124.23 539.52 125.21 538.21 126.48L539.23 127.05C539.46 125.39 539.62 123.72 539.68 122.05C539.71 121.22 539.72 120.37 539.69 119.54C539.61 118.7 539.58 117.84 539.44 117C539.32 116.11 539 115.26 538.51 114.51C538.22 114.09 537.78 113.78 537.29 113.64C536.81 113.54 536.32 113.57 535.86 113.72C534.19 114.29 532.79 115.45 531.92 116.99L532.22 116.83L532.21 116.83L532.02 116.83L531.92 116.99C531.34 117.9 530.83 118.85 530.37 119.82C530.15 120.29 529.9 120.73 529.62 121.16C529.44 121.37 529.45 121.36 529.2 121.38C529.12 121.39 529.04 121.37 528.97 121.33C528.9 121.29 528.84 121.23 528.81 121.16C528.64 120.72 528.57 120.24 528.61 119.76C528.62 119.24 528.66 118.72 528.73 118.2C528.86 117.16 529.07 116.12 529.35 115.1C529.63 114.07 529.86 113.02 530.03 111.96C530.22 110.87 530.24 109.76 530.07 108.68C529.97 108.11 529.76 107.57 529.46 107.08C529.14 106.59 528.7 106.19 528.18 105.9C527.17 105.41 526.04 105.19 524.91 105.27L524.97 105.28C524.49 105.23 524.01 105.25 523.53 105.32C523.06 105.4 522.59 105.53 522.15 105.71C521.26 106.09 520.48 106.7 519.91 107.48L519.95 107.44C519.87 107.52 519.83 107.62 519.83 107.73L519.83 109.31L520.56 107.9L520.57 107.88L520.58 107.87L520.59 107.82C521.9 104.37 522.77 100.78 523.21 97.12C523.3 96.17 523.28 95.21 523.17 94.26C523.08 93.21 522.62 92.22 521.88 91.47C521.44 91.09 520.91 90.85 520.34 90.76C519.79 90.69 519.23 90.75 518.7 90.92C517.76 91.28 516.9 91.81 516.18 92.51C514.81 93.81 513.61 95.27 512.6 96.86C511.59 98.41 510.65 100.01 509.81 101.65C508.04 104.91 506.65 108.37 505.66 111.94C504.71 115.48 503.82 118.98 502.6 122.37C501.38 125.71 499.9 129.07 497.55 131.5C496.45 132.7 494.99 133.49 493.4 133.75C492.58 133.84 491.75 133.81 490.94 133.66C490.07 133.53 489.22 133.36 488.38 133.13C486.69 132.67 485.06 132.02 483.53 131.18C482.02 130.35 480.61 129.33 479.37 128.13L478.36 127.14L477.83 128.35C477.25 129.72 476.9 131.18 476.79 132.66C476.67 134.1 476.72 135.55 476.94 136.97C477.41 139.79 478.43 142.49 479.94 144.92C480.69 146.15 481.61 147.28 482.66 148.27C483.73 149.22 484.89 150.05 486.14 150.75C487.37 151.44 488.62 152.01 489.77 152.65C490.9 153.2 491.86 154.03 492.56 155.06C493.15 156.18 493.46 157.42 493.47 158.69C493.56 160.03 493.61 161.38 493.62 162.74C493.66 165.46 493.6 168.19 493.51 170.92C493.4 173.64 493.3 176.37 493.12 179.1C492.93 181.82 492.78 184.56 492.32 187.24L492.5 187.28C493.08 184.59 493.35 181.86 493.67 179.14C493.96 176.42 494.22 173.7 494.4 170.96C494.58 168.23 494.72 165.49 494.77 162.75C494.8 161.37 494.78 159.99 494.74 158.61C494.76 157.13 494.43 155.67 493.77 154.35C492.96 153.09 491.84 152.06 490.51 151.38C489.28 150.66 488.06 150.08 486.91 149.41C485.79 148.75 484.74 147.97 483.77 147.08C482.85 146.18 482.05 145.15 481.4 144.03C480.06 141.78 479.17 139.29 478.78 136.69C478.59 135.42 478.54 134.12 478.66 132.83C478.76 131.58 479.05 130.36 479.52 129.2L477.98 129.42C480.76 132.09 484.16 134 487.87 135C488.78 135.25 489.72 135.45 490.66 135.58C491.14 135.64 491.58 135.73 492.1 135.74L492.87 135.77C493.13 135.75 493.39 135.72 493.64 135.7C495.68 135.39 497.55 134.4 498.94 132.88C501.65 129.99 503.09 126.45 504.34 122.98C505.55 119.48 506.42 115.9 507.33 112.38C507.55 111.51 507.78 110.64 508.06 109.81C508.34 108.97 508.66 108.13 509 107.29C509.66 105.62 510.4 103.97 511.2 102.36C512 100.75 512.87 99.18 513.83 97.66C514.75 96.15 515.84 94.76 517.09 93.5C517.67 92.92 518.36 92.45 519.11 92.13C519.45 92.01 519.81 91.96 520.17 91.98C520.51 92.03 520.83 92.16 521.09 92.38C521.64 92.93 521.98 93.66 522.06 94.44C522.19 95.3 522.22 96.17 522.16 97.04C521.83 100.64 521.05 104.19 519.85 107.6L519.88 107.54L519.87 107.56L520.6 107.73C520.6 107.78 520.59 107.82 520.58 107.87C520.56 107.91 520.53 107.95 520.5 107.98L520.53 107.94C521.01 107.25 521.67 106.71 522.43 106.36C523.2 106.03 524.04 105.88 524.88 105.95L524.92 105.95L524.94 105.95C525.94 105.86 526.96 106.04 527.87 106.47C528.3 106.71 528.66 107.05 528.93 107.45C529.21 107.85 529.39 108.31 529.47 108.8C529.63 109.82 529.62 110.86 529.44 111.87C529.28 112.92 529.07 113.95 528.8 114.97C528.52 116.01 528.3 117.06 528.14 118.13C528.07 118.67 528.02 119.21 528 119.75C527.94 120.34 528.03 120.93 528.27 121.48C528.36 121.63 528.49 121.77 528.65 121.86C528.81 121.96 528.99 122.01 529.17 122.02C529.36 122.03 529.54 121.99 529.71 121.91C529.87 121.83 530.02 121.71 530.13 121.56C530.45 121.11 530.73 120.63 530.96 120.13C531.42 119.18 531.94 118.26 532.51 117.38L532.21 117.53L532.22 117.53L532.41 117.53L532.52 117.37C533.29 116 534.56 114.97 536.06 114.49C536.36 114.36 536.71 114.34 537.03 114.44C537.34 114.54 537.62 114.74 537.8 115.02C538.19 115.68 538.43 116.4 538.5 117.16C538.61 117.95 538.62 118.75 538.66 119.56C538.67 120.37 538.64 121.18 538.59 121.99C538.47 123.62 538.27 125.24 538 126.84L537.71 128.5L539.02 127.42C540.22 126.32 541.63 125.48 543.16 124.94C543.81 124.72 544.52 124.75 545.15 125.03C545.74 125.39 546.18 125.93 546.41 126.58C546.68 127.26 546.78 127.99 546.69 128.72C546.64 129.09 546.56 129.45 546.43 129.8L546.01 131.01L544.31 135.88C543.16 139.12 542.06 142.37 540.96 145.62C540.41 147.26 539.88 148.89 539.27 150.44C538.65 152.01 537.94 153.54 537.17 155.06C535.62 158.08 533.83 160.99 532.03 163.91C531.14 165.38 530.21 166.8 529.4 168.42C529.3 168.64 529.21 168.87 529.14 169.1C529.1 169.25 529.07 169.4 529.04 169.54C529.02 169.68 529.02 169.77 529.02 169.88L528.93 171.16L528.74 173.72C528.25 180.56 527.83 187.41 527.43 194.27L527.62 194.28Z" fill="url(#paint_linear_2126_349_0)" fill-opacity="1.000000" fill-rule="nonzero"/>
			<path id="Vector" d="M516.42 117.74L520.65 107.9L519.78 107.57L516.42 117.74Z" fill="url(#paint_linear_2126_350_0)" fill-opacity="1.000000" fill-rule="nonzero"/>
			<path id="Vector" d="M378.83 84.12C382.25 85.57 385.82 86.79 389.4 87.91C392.99 89.02 396.64 89.93 400.34 90.63C404.05 91.39 407.84 91.77 411.63 91.76C413.55 91.74 415.47 91.54 417.35 91.17C419.3 90.8 421.16 90.08 422.85 89.04L422.77 89.09C425.6 87.67 428.45 86.29 431.27 84.84L432.22 84.36L431.65 83.54C431.58 83.43 431.5 83.34 431.4 83.25C431.35 83.21 431.3 83.17 431.24 83.13C431.16 83.07 431.06 83 430.98 82.96C430.83 82.87 430.66 82.76 430.51 82.7C430.2 82.55 429.9 82.42 429.6 82.3C429 82.07 428.41 81.86 427.81 81.69C426.62 81.31 425.42 81.02 424.22 80.74C421.82 80.19 419.42 79.72 417 79.34C414.59 78.93 412.17 78.58 409.75 78.25C407.34 77.91 404.91 77.62 402.49 77.32L402.82 77.5L397.87 71.83C396.22 69.94 394.63 68.02 392.92 66.15C389.47 62.46 385.47 59.31 381.06 56.82C378.85 55.59 376.56 54.52 374.19 53.63C371.82 52.76 369.39 52.04 366.92 51.49C361.97 50.23 356.84 49.83 351.75 50.29C346.61 50.93 341.7 52.84 337.48 55.86C333.28 58.92 329.86 62.92 327.5 67.54C326.32 69.85 325.41 72.29 324.77 74.8L324.36 76.69C324.24 77.32 324.13 77.95 324.04 78.58C323.84 79.83 323.67 81.1 323.55 82.37C323.27 84.92 323.21 87.49 323.36 90.05C323.5 92.65 323.97 95.22 324.77 97.7L325.09 98.67L326.06 98.37L339.17 94.43L352.32 90.61C356.7 89.33 361.09 88.09 365.51 86.94C367.71 86.34 369.92 85.78 372.13 85.26C373.25 85.02 374.35 84.73 375.48 84.55L377.15 84.25L378.83 84.12ZM378.87 83.92L377.12 83.94L375.41 84.13C374.27 84.25 373.15 84.49 372.02 84.67C369.76 85.08 367.52 85.52 365.28 86.02C360.82 87.01 356.37 88.08 351.94 89.19C347.5 90.3 343.09 91.5 338.68 92.69C334.27 93.89 329.86 95.09 325.47 96.37L326.76 97.04C325.28 92.47 325.29 87.46 325.74 82.58C325.86 81.36 326.01 80.14 326.21 78.92C326.3 78.31 326.41 77.7 326.51 77.09L326.9 75.32C327.47 72.96 328.3 70.67 329.37 68.49C331.53 64.12 334.69 60.32 338.6 57.39C342.54 54.49 347.13 52.6 351.97 51.87C356.88 51.29 361.85 51.53 366.68 52.58C371.59 53.45 376.32 55.1 380.71 57.46C385.1 59.84 389.06 62.93 392.44 66.6C395.72 70.35 398.85 74.3 402.02 78.17L402.14 78.32L402.35 78.35C404.75 78.74 407.16 79.12 409.55 79.55C411.95 79.96 414.34 80.4 416.71 80.89C419.09 81.37 421.46 81.89 423.8 82.47C424.97 82.76 426.13 83.08 427.26 83.43C427.83 83.6 428.39 83.8 428.92 84.01C429.19 84.11 429.45 84.23 429.69 84.35C429.82 84.4 429.91 84.47 430.02 84.52C430.06 84.55 430.1 84.57 430.13 84.6C430.16 84.62 430.17 84.63 430.16 84.62C430.15 84.6 430.19 84.67 430.07 84.49L430.44 83.2C427.6 84.61 424.8 86.08 421.97 87.52L421.93 87.54L421.89 87.57C418.96 89.48 415.21 90.03 411.59 90.16C409.75 90.2 407.91 90.15 406.07 89.99C404.23 89.86 402.39 89.64 400.56 89.35C396.88 88.8 393.25 87.97 389.63 87.07C386.01 86.16 382.44 85.1 378.87 83.92Z" fill="url(#paint_linear_2126_351_0)" fill-opacity="1.000000" fill-rule="nonzero"/>
			<path id="Vector" d="M356.18 55.83C357.94 57.9 359.74 59.9 361.55 61.9L366.98 67.89C368.79 69.88 370.59 71.89 372.36 73.9C374.13 75.93 375.88 77.97 377.62 80.06C376.33 77.67 374.85 75.38 373.2 73.23C371.57 71.05 369.8 68.99 368 66.97C366.17 64.97 364.28 63.02 362.32 61.16C360.36 59.28 358.32 57.5 356.18 55.83Z" fill="url(#paint_linear_2126_352_0)" fill-opacity="1.000000" fill-rule="nonzero"/>
			<path id="Vector" d="M346.78 56.82C345.33 59.46 344.04 62.19 342.93 64.99C341.8 67.79 340.82 70.64 339.97 73.54C339.14 76.45 338.48 79.4 338.02 82.39C337.56 85.38 337.43 88.42 337.64 91.44C337.96 88.46 338.44 85.51 339.07 82.58C339.72 79.67 340.47 76.79 341.29 73.92C342.1 71.05 343.02 68.21 343.93 65.36C344.88 62.52 345.81 59.67 346.78 56.82Z" fill="url(#paint_linear_2126_353_0)" fill-opacity="1.000000" fill-rule="nonzero"/>
			<path id="Vector" d="M402.42 77.84C400.8 77.86 399.18 77.97 397.57 78.18C395.96 78.36 394.37 78.62 392.78 78.89C391.19 79.19 389.61 79.51 388.04 79.91C386.46 80.28 384.91 80.75 383.38 81.3C385.01 81.28 386.63 81.16 388.24 80.96C389.84 80.78 391.43 80.52 393.02 80.24C394.61 79.94 396.19 79.62 397.76 79.23C399.34 78.85 400.89 78.39 402.42 77.84Z" fill="url(#paint_linear_2126_354_0)" fill-opacity="1.000000" fill-rule="nonzero"/>
			<path id="Vector" d="M402.42 90.31C402.4 91.69 402.47 93.06 402.57 94.44C402.66 95.83 402.85 97.22 403.16 98.58C403.31 99.31 403.59 100.02 403.98 100.66C404.33 101.18 404.67 101.79 405.02 102.38C405.7 103.56 406.36 104.76 407.03 105.95C408.36 108.35 409.68 110.75 410.97 113.16C411.61 114.37 412.26 115.57 412.87 116.79C413.18 117.4 413.47 118.01 413.75 118.62C413.89 118.93 414.02 119.23 414.13 119.54C414.18 119.68 414.25 119.84 414.28 119.97C414.3 120.03 414.31 120.09 414.31 120.14C414.32 120.16 414.33 120.21 414.33 120.19C414.33 120.16 414.33 120.14 414.34 120.12C414.35 120.1 414.37 120.08 414.39 120.07L414.64 119.89C414.17 120.01 413.69 120.05 413.21 120.03C412.69 120.01 412.18 119.94 411.68 119.82C411.17 119.7 410.67 119.55 410.18 119.37C409.68 119.18 409.19 118.96 408.72 118.72L408.65 118.69L408.61 118.7C408.12 118.79 407.67 119 407.29 119.31C406.93 119.61 406.67 120.03 406.54 120.49C406.72 120.07 407.03 119.72 407.42 119.48C407.79 119.25 408.21 119.11 408.64 119.07L408.53 119.05C409.44 119.68 410.43 120.18 411.49 120.54C412.03 120.71 412.58 120.83 413.14 120.9C413.74 120.99 414.34 120.97 414.93 120.84L415.1 120.81L415.18 120.67C415.25 120.55 415.3 120.43 415.32 120.3C415.33 120.23 415.33 120.16 415.32 120.09C415.32 119.98 415.3 119.86 415.28 119.75C415.24 119.57 415.19 119.38 415.13 119.2C415.03 118.85 414.91 118.52 414.78 118.19C414.53 117.54 414.25 116.9 413.96 116.27C413.39 115.01 412.79 113.77 412.15 112.54C410.89 110.09 409.55 107.68 408.17 105.3C407.47 104.12 406.75 102.94 406.02 101.77C405.64 101.18 405.27 100.62 404.82 100.02C404.48 99.5 404.22 98.93 404.05 98.32C403.32 95.7 402.77 93.02 402.42 90.31Z" fill="url(#paint_linear_2126_355_0)" fill-opacity="1.000000" fill-rule="nonzero"/>
			<path id="Vector" d="M398.96 123.91C402.92 117.81 408.63 120.49 408.63 120.49C408.63 120.49 410.83 150.78 397.31 151.61C387.02 152.24 378.17 145.99 371.95 139.26C368.73 135.76 366.68 131.33 366.12 126.61C365.27 119.71 364.01 109.28 363.68 106.27C363.19 101.66 361.32 89.57 354.62 90.31C354.62 90.31 340.6 90.45 347.86 114.68C347.86 114.68 349.84 129.85 336.98 128.03C336.98 128.03 339.61 120.45 336.15 114.68C332.69 108.91 328.14 101.62 328.35 96.61C328.35 96.61 373.74 83.19 378.85 84.02C375.7 85.68 373.17 88.3 371.63 91.51C370.09 94.71 369.61 98.33 370.28 101.82C371.78 111.62 379.04 124.77 382.4 130.48C382.93 131.39 383.71 132.13 384.63 132.64C385.56 133.15 386.6 133.39 387.65 133.35C389.6 133.28 391.84 132.99 392.9 132.16C395.01 130.51 398.96 123.91 398.96 123.91Z" fill="url(#paint_linear_2126_356_0)" fill-opacity="1.000000" fill-rule="nonzero"/>
			<path id="Vector" d="M399.45 94.85C398.48 94.11 397.38 93.57 396.2 93.26C395.01 92.92 393.76 92.82 392.52 92.95C391.26 93.1 390.05 93.58 389.03 94.34C388.04 95.08 387.28 96.09 386.83 97.25C387.67 96.47 388.6 95.79 389.6 95.25C390.57 94.76 391.61 94.44 392.69 94.31C393.79 94.19 394.9 94.19 396.01 94.31C397.13 94.43 398.27 94.61 399.45 94.85Z" fill="url(#paint_linear_2126_357_0)" fill-opacity="1.000000" fill-rule="nonzero"/>
			<path id="Vector" d="M360.55 111.71C358.34 112.58 355.78 112.48 354.15 111.03C353.32 110.3 352.66 109.4 352.21 108.39C351.73 107.36 351.35 106.28 351.06 105.17C350.42 102.94 350.04 100.64 349.93 98.32C349.88 97.16 349.91 95.99 350.02 94.84C350.08 94.25 350.16 93.67 350.28 93.1C350.33 92.81 350.4 92.53 350.48 92.24C350.54 91.95 350.66 91.68 350.82 91.44C350.41 91.88 350.1 92.41 349.91 92.99C349.69 93.55 349.51 94.13 349.36 94.72C349.08 95.9 348.91 97.11 348.86 98.32C348.77 100.76 349.07 103.2 349.74 105.54C350.4 107.82 351.36 110.34 353.5 111.88C354.55 112.64 355.84 113 357.13 112.91C358.36 112.83 359.54 112.42 360.55 111.71Z" fill="url(#paint_linear_2126_358_0)" fill-opacity="1.000000" fill-rule="nonzero"/>
			<path id="Vector" d="M376.54 143.66C375.73 144.15 374.99 144.74 374.32 145.41C373.64 146.06 373.02 146.76 372.46 147.51C371.89 148.27 371.39 149.08 370.99 149.94C370.52 150.8 370.32 151.79 370.44 152.76C370.84 151.95 371.33 151.18 371.91 150.49C372.45 149.77 373.02 149.07 373.56 148.33C374.1 147.61 374.63 146.86 375.14 146.09C375.66 145.32 376.13 144.5 376.54 143.66Z" fill="url(#paint_linear_2126_359_0)" fill-opacity="1.000000" fill-rule="nonzero"/>
			<path id="Vector" d="M336.98 128.03C336.1 129.39 335.31 130.78 334.59 132.23C334.23 132.92 333.87 133.6 333.47 134.25C333.08 134.93 332.59 135.56 332.03 136.11C332.9 135.99 333.7 135.57 334.3 134.92C334.91 134.32 335.42 133.63 335.81 132.87C336.2 132.13 336.49 131.34 336.7 130.53C336.92 129.72 337.01 128.88 336.98 128.03Z" fill="url(#paint_linear_2126_360_0)" fill-opacity="1.000000" fill-rule="nonzero"/>
			<path id="Vector" d="M316.86 124.57C316.86 124.57 332.76 125.73 335.45 132.08L334.96 132.99L333.19 132.08C324.66 127.83 319.84 133.47 325.76 134.47C331.7 135.45 367.06 151.65 367.06 151.65C382.39 155.99 391.38 179.3 391.38 179.3C388.91 178.24 386.39 177.3 383.89 176.28C381.33 175.46 378.78 174.56 376.18 173.83C370.98 172.36 365.67 171.28 360.3 170.6C354.93 169.91 349.5 169.74 344.09 170.1C342.74 170.25 341.39 170.34 340.05 170.53C338.72 170.76 337.37 170.92 336.05 171.24C333.4 171.76 330.81 172.58 328.35 173.7C330.91 172.93 333.54 172.41 336.2 172.13C337.52 171.92 338.86 171.86 340.18 171.74C341.51 171.65 342.83 171.61 344.16 171.54C349.48 171.46 354.8 171.76 360.08 172.44L364.04 172.96L367.98 173.65L369.95 173.98L371.9 174.41C373.21 174.69 374.51 174.97 375.82 175.24C378.43 175.85 381.01 176.53 383.62 177.16C386.2 177.86 388.77 178.64 391.38 179.3C431.6 185.9 470.84 210.63 473.47 209.97C476.11 209.31 478.43 188.54 478.43 183.2C478.43 177.86 479.41 167.76 487.33 167.76C495.24 167.76 494.25 174.68 494.25 174.68C479.41 178.64 513.7 181.62 523.92 182.93C534.14 184.25 528.54 180.3 528.54 180.3C528.54 180.3 531.51 177.13 534.68 181.07C535.68 182.34 536.34 183.83 536.63 185.42C536.92 187 536.82 188.64 536.34 190.18C535.32 193.56 533.83 198.69 532.83 202.71C531.17 209.31 525.24 256.79 523.26 261.4C521.28 266.01 480.4 278.22 393.36 271.95C386.31 270.85 379.28 269.68 372.26 268.5C365.24 267.31 358.22 266.08 351.26 264.66C347.78 263.96 344.29 263.24 340.85 262.41C337.38 261.62 333.94 260.74 330.53 259.78C327.12 258.82 323.76 257.69 320.46 256.4C317.12 255.19 314.01 253.43 311.26 251.18C312.47 252.51 313.86 253.66 315.38 254.6C316.89 255.58 318.46 256.46 320.09 257.23C323.34 258.75 326.69 260.06 330.1 261.16C336.93 263.33 343.87 265.1 350.89 266.48C357.91 267.87 364.96 269.02 372.04 269.94C379.12 270.87 386.23 271.56 393.36 271.95C393.36 271.95 396.53 291.22 398.18 308.55L274.2 308.55C274.33 291.62 274.35 269.2 273.84 249.04C272.85 210.14 273.84 191.83 273.84 191.83C275.62 191.63 277.38 191.27 279.1 190.75C280.81 190.26 282.5 189.67 284.18 189.07C287.53 187.86 290.8 186.45 294.06 185C297.29 183.52 300.49 181.98 303.64 180.32C306.79 178.67 309.9 176.93 312.91 175.02C309.56 176.25 306.28 177.61 303.01 179.01C299.75 180.4 296.53 181.87 293.28 183.31L283.63 187.73C280.39 189.16 277.22 190.71 273.84 191.83C273.84 191.83 257.52 199.25 256.03 180.46C254.55 161.67 272.36 121.11 316.86 124.57ZM310.01 185.62C308.37 187.17 306.94 188.93 305.76 190.84C305.17 191.8 304.67 192.81 304.14 193.82C303.68 194.85 303.31 195.91 302.88 196.96C302.68 197.49 302.52 198.03 302.4 198.58L301.97 200.21C301.68 201.3 301.47 202.4 301.34 203.52L301.12 205.19L301.01 206.03L300.97 206.87L300.86 210.22L300.83 211.06L300.89 211.89L301.01 213.57C301.08 214.68 301.16 215.79 301.28 216.89C301.65 219.09 302 221.28 302.48 223.44C303.08 225.58 303.67 227.71 304.33 229.81C304.06 227.61 303.72 225.44 303.38 223.28C303.12 221.1 302.97 218.92 302.72 216.75L302.63 213.49L302.59 211.86L302.56 211.06L302.61 210.25L302.78 207L302.82 206.2L302.94 205.4L303.18 203.8C303.73 199.53 305.02 195.38 307 191.56C308.03 189.66 309.26 187.89 310.66 186.25C312.07 184.58 313.71 183.13 315.54 181.94C313.49 182.82 311.61 184.07 310.01 185.62ZM286.59 147.99C287.25 149.39 288.39 150.5 289.8 151.14C290.5 151.46 291.23 151.7 291.98 151.85C292.74 151.96 293.49 152.02 294.25 152.05C295 152.01 295.77 152.01 296.51 151.92L298.72 151.55C299.46 151.41 300.16 151.19 300.89 151.01L302.98 150.44C304.34 150.08 305.73 149.84 307.13 149.7C309.97 149.43 312.83 149.42 315.67 149.67C321.41 150.19 327.1 151.17 332.69 152.62C335.49 153.33 338.3 154.09 341.08 154.92C343.87 155.71 346.63 156.62 349.39 157.54C344.13 155 338.67 152.89 333.07 151.23C327.45 149.5 321.67 148.35 315.82 147.82C312.86 147.58 309.88 147.63 306.93 147.95C305.44 148.14 303.97 148.45 302.53 148.87L298.4 150.14L296.32 150.59C295.63 150.71 294.93 150.74 294.23 150.83C293.54 150.88 292.84 150.82 292.15 150.8C291.47 150.71 290.8 150.55 290.15 150.31C288.84 149.86 287.73 148.95 287.02 147.75C286.66 147.14 286.38 146.49 286.2 145.8C286 145.11 285.88 144.39 285.87 143.66C285.71 145.14 285.95 146.64 286.59 147.99L286.59 147.99Z" fill="url(#paint_linear_2126_361_0)" fill-opacity="1.000000" fill-rule="nonzero"/>
			<path id="Vector" d="M450.4 308.55C432.1 308.02 413.8 307.66 395.5 307.48C386.35 307.35 377.2 307.33 368.05 307.25L340.6 307.18L313.16 307.25C304.01 307.32 294.86 307.35 285.71 307.48C267.41 307.66 249.11 308.01 230.81 308.55C249.11 309.08 267.41 309.44 285.71 309.62C294.86 309.75 304.01 309.77 313.16 309.85L340.6 309.92L368.05 309.85C377.2 309.77 386.35 309.74 395.5 309.62C413.8 309.44 432.1 309.08 450.4 308.55Z" fill="url(#paint_linear_2126_362_0)" fill-opacity="1.000000" fill-rule="nonzero"/>
			<path id="Vector" d="M396.36 104.8C392.78 104.8 392.77 99.23 396.36 99.23C399.95 99.23 399.96 104.8 396.36 104.8Z" fill="url(#paint_linear_2126_363_0)" fill-opacity="1.000000" fill-rule="nonzero"/>
		</g>
	</g>
</svg>
