<svg width="68.000000" height="68.000000" viewBox="0 0 68 68" fill="none" xmlns="http://www.w3.org/2000/svg" xmlns:xlink="http://www.w3.org/1999/xlink">
	<desc>
			Created with Pixso.
	</desc>
	<defs>
		<clipPath id="clip2152_760">
			<rect id="Social icon" width="68.000000" height="68.000000" transform="translate(-0.500000 0.000000)" fill="white" fill-opacity="0"/>
		</clipPath>
		<linearGradient id="paint_linear_61_270_0" x1="90.489899" y1="8.212944" x2="33.277367" y2="53.434525" gradientUnits="userSpaceOnUse">
			<stop stop-color="#9DE8EE"/>
			<stop offset="0.000100" stop-color="#9DE8EE"/>
			<stop offset="0.490049" stop-color="#FA7C0B"/>
			<stop offset="1.000000" stop-color="#9F8CED"/>
		</linearGradient>
	</defs>
	<rect id="Social icon" width="68.000000" height="68.000000" transform="translate(-0.500000 0.000000)" fill="#FFFFFF" fill-opacity="0"/>
	<g clip-path="url(#clip2152_760)">
		<path id="Subtract" d="M33.5 68C52.2773 68 67.5 52.7777 67.5 34C67.5 15.2223 52.2773 0 33.5 0C14.7227 0 -0.5 15.2223 -0.5 34C-0.5 52.7777 14.7227 68 33.5 68ZM34.7188 25.1003Q29.7578 27.1636 14.8906 33.6411Q12.4766 34.6012 12.3613 35.5196C12.2324 36.5543 13.5273 36.9617 15.291 37.5165C15.5312 37.592 15.7812 37.6702 16.0352 37.7531C17.7715 38.3174 20.1074 38.9775 21.3203 39.0038C22.4219 39.0276 23.6504 38.5736 25.0078 37.6418Q38.8984 28.2649 39.3496 28.1627C39.5605 28.1147 39.8535 28.0542 40.0527 28.2309C40.252 28.4076 40.2324 28.7422 40.2109 28.832C40.043 29.5499 31.3438 37.4626 30.8438 37.9827C30.5762 38.2595 30.3047 38.5214 30.043 38.7731C28.4316 40.3278 27.2207 41.4937 30.1113 43.3976C33.0156 45.3117 34.7051 46.5328 37.6992 48.4944C38.0957 48.7553 38.4766 49.0262 38.8457 49.2902C40.2559 50.2944 41.5215 51.1967 43.084 51.0528C43.9922 50.9692 44.9316 50.1149 45.4082 47.567C46.5352 41.5456 48.748 28.499 49.2598 23.1228C49.3047 22.6518 49.248 22.049 49.2031 21.7843C49.1582 21.5197 49.0625 21.1427 48.7188 20.8636C48.3125 20.533 47.6836 20.4633 47.4023 20.4683C46.123 20.4908 44.1602 21.173 34.7188 25.1003Z" clip-rule="evenodd" fill="#FFFFFF" fill-opacity="1.000000" fill-rule="evenodd"/>
		<path id="Subtract" d="M33.5 68C52.2773 68 67.5 52.7777 67.5 34C67.5 15.2223 52.2773 0 33.5 0C14.7227 0 -0.5 15.2223 -0.5 34C-0.5 52.7777 14.7227 68 33.5 68ZM34.7188 25.1003Q29.7578 27.1636 14.8906 33.6411Q12.4766 34.6012 12.3613 35.5196C12.2324 36.5543 13.5273 36.9617 15.291 37.5165C15.5312 37.592 15.7812 37.6702 16.0352 37.7531C17.7715 38.3174 20.1074 38.9775 21.3203 39.0038C22.4219 39.0276 23.6504 38.5736 25.0078 37.6418Q38.8984 28.2649 39.3496 28.1627C39.5605 28.1147 39.8535 28.0542 40.0527 28.2309C40.252 28.4076 40.2324 28.7422 40.2109 28.832C40.043 29.5499 31.3438 37.4626 30.8438 37.9827C30.5762 38.2595 30.3047 38.5214 30.043 38.7731C28.4316 40.3278 27.2207 41.4937 30.1113 43.3976C33.0156 45.3117 34.7051 46.5328 37.6992 48.4944C38.0957 48.7553 38.4766 49.0262 38.8457 49.2902C40.2559 50.2944 41.5215 51.1967 43.084 51.0528C43.9922 50.9692 44.9316 50.1149 45.4082 47.567C46.5352 41.5456 48.748 28.499 49.2598 23.1228C49.3047 22.6518 49.248 22.049 49.2031 21.7843C49.1582 21.5197 49.0625 21.1427 48.7188 20.8636C48.3125 20.533 47.6836 20.4633 47.4023 20.4683C46.123 20.4908 44.1602 21.173 34.7188 25.1003Z" clip-rule="evenodd" fill="url(#paint_linear_61_270_0)" fill-opacity="1.000000" fill-rule="evenodd"/>
	</g>
</svg>
