<svg width="41.000000" height="42.000000" viewBox="0 0 41 42" fill="none" xmlns="http://www.w3.org/2000/svg" xmlns:xlink="http://www.w3.org/1999/xlink">
	<desc>
			Created with Pixso.
	</desc>
	<defs/>
	<path id="Vector" d="M37.07 11.47C36.85 7.86 33.83 5.03 30.2 5.03L28.43 5.03L28.43 3.65C28.43 3.29 28.29 2.94 28.03 2.68C27.77 2.42 27.42 2.28 27.06 2.28C26.69 2.28 26.34 2.42 26.08 2.68C25.83 2.94 25.68 3.29 25.68 3.65L25.68 5.03L14.68 5.03L14.68 3.65C14.68 3.29 14.54 2.94 14.28 2.68C14.02 2.42 13.67 2.28 13.31 2.28C12.94 2.28 12.59 2.42 12.33 2.68C12.08 2.94 11.93 3.29 11.93 3.65L11.93 5.03L10.16 5.03C6.53 5.03 3.51 7.86 3.3 11.47C2.89 18.27 2.9 25.16 3.32 31.96C3.53 35.41 6.3 38.18 9.75 38.39C13.21 38.61 16.7 38.71 20.18 38.71C23.66 38.71 27.15 38.61 30.61 38.39C34.06 38.18 36.83 35.41 37.04 31.96C37.47 25.16 37.48 18.27 37.07 11.47ZM34.3 31.79C34.24 32.79 33.81 33.73 33.1 34.44C32.39 35.16 31.44 35.58 30.44 35.65C23.63 36.07 16.73 36.07 9.92 35.65C8.92 35.58 7.98 35.16 7.26 34.44C6.55 33.73 6.13 32.79 6.06 31.79C5.74 26.54 5.67 21.28 5.84 16.03L34.52 16.03C34.69 21.28 34.63 26.56 34.3 31.79ZM13.31 10.53C13.67 10.53 14.02 10.38 14.28 10.12C14.54 9.87 14.68 9.52 14.68 9.15L14.68 7.78L25.68 7.78L25.68 9.15C25.68 9.52 25.83 9.87 26.08 10.12C26.34 10.38 26.69 10.53 27.06 10.53C27.42 10.53 27.77 10.38 28.03 10.12C28.29 9.87 28.43 9.52 28.43 9.15L28.43 7.78L30.2 7.78C32.38 7.78 34.19 9.47 34.32 11.63C34.35 12.18 34.37 12.73 34.4 13.28L5.97 13.28C6 12.73 6.01 12.18 6.04 11.63C6.17 9.47 7.98 7.78 10.16 7.78L11.93 7.78L11.93 9.15C11.93 9.52 12.08 9.87 12.33 10.12C12.59 10.38 12.94 10.53 13.31 10.53Z" fill="#9F9F9F" fill-opacity="1.000000" fill-rule="nonzero"/>
	<path id="Vector" d="M14.53 22.5C14.53 23.82 13.45 24.9 12.11 24.9C10.77 24.9 9.69 23.82 9.69 22.5C9.69 21.17 10.77 20.1 12.11 20.1C13.45 20.1 14.53 21.17 14.53 22.5Z" fill="#9F9F9F" fill-opacity="1.000000" fill-rule="evenodd"/>
	<path id="Vector" d="M22.6 22.5C22.6 23.82 21.52 24.9 20.18 24.9C18.84 24.9 17.76 23.82 17.76 22.5C17.76 21.17 18.84 20.1 20.18 20.1C21.52 20.1 22.6 21.17 22.6 22.5Z" fill="#9F9F9F" fill-opacity="1.000000" fill-rule="evenodd"/>
	<path id="Vector" d="M14.53 30.51C14.53 31.83 13.45 32.91 12.11 32.91C10.77 32.91 9.69 31.83 9.69 30.51C9.69 29.18 10.77 28.1 12.11 28.1C13.45 28.1 14.53 29.18 14.53 30.51Z" fill="#9F9F9F" fill-opacity="1.000000" fill-rule="evenodd"/>
	<path id="Vector" d="M30.68 22.5C30.68 23.82 29.59 24.9 28.26 24.9C26.92 24.9 25.83 23.82 25.83 22.5C25.83 21.17 26.92 20.1 28.26 20.1C29.59 20.1 30.68 21.17 30.68 22.5Z" fill="#9F9F9F" fill-opacity="1.000000" fill-rule="evenodd"/>
	<path id="Vector" d="M30.68 30.51C30.68 31.83 29.59 32.91 28.26 32.91C26.92 32.91 25.83 31.83 25.83 30.51C25.83 29.18 26.92 28.1 28.26 28.1C29.59 28.1 30.68 29.18 30.68 30.51Z" fill="#9F9F9F" fill-opacity="1.000000" fill-rule="evenodd"/>
	<path id="Vector" d="M22.6 30.51C22.6 31.83 21.52 32.91 20.18 32.91C18.84 32.91 17.76 31.83 17.76 30.51C17.76 29.18 18.84 28.1 20.18 28.1C21.52 28.1 22.6 29.18 22.6 30.51Z" fill="#9F9F9F" fill-opacity="1.000000" fill-rule="evenodd"/>
</svg>
