<svg width="174.000000" height="27.000000" viewBox="0 0 174 27" fill="none" xmlns="http://www.w3.org/2000/svg" xmlns:xlink="http://www.w3.org/1999/xlink">
	<desc>
			Created with Pixso.
	</desc>
	<defs>
		<clipPath id="clip2119_2734">
			<rect id="Frame" width="174.000000" height="27.000000" transform="translate(-0.834961 0.000000)" fill="white" fill-opacity="0"/>
		</clipPath>
	</defs>
	<rect id="Frame" width="174.000000" height="27.000000" transform="translate(-0.834961 0.000000)" fill="#FFFFFF" fill-opacity="0"/>
	<g clip-path="url(#clip2119_2734)">
		<path id="Vector" d="M7.46 14.76L12 21.31C12.15 21.55 12.36 21.75 12.6 21.92C12.85 22.08 13.12 22.2 13.41 22.26C13.71 22.32 14.01 22.33 14.3 22.28C14.6 22.24 14.88 22.13 15.14 21.98C15.39 21.83 15.61 21.64 15.78 21.41C15.95 21.17 16.07 20.91 16.13 20.64C16.2 20.37 16.2 20.08 16.15 19.81C16.09 19.53 15.98 19.27 15.82 19.03L10.36 11.16C10.29 11.05 10.2 10.95 10.11 10.85L15.55 2.82L28.96 22.59C29.24 22.99 29.41 23.45 29.46 23.92C29.5 24.4 29.42 24.88 29.21 25.32C28.97 25.82 28.58 26.24 28.1 26.54C27.61 26.84 27.04 26.99 26.45 27L-0.84 27L7.46 14.76Z" fill="#FFFFFF" fill-opacity="1.000000" fill-rule="evenodd"/>
		<path id="Vector" d="M31.99 21.4L17.47 0L16.2 1.87L29.9 22.06C30.04 22.25 30.15 22.46 30.25 22.68C30.46 23.16 30.57 23.67 30.57 24.18C30.56 24.7 30.45 25.21 30.24 25.68L30.67 25.5C30.81 25.44 30.94 25.38 31.06 25.3C31.4 25.11 31.69 24.85 31.91 24.54C32.14 24.24 32.3 23.89 32.39 23.53C32.48 23.17 32.48 22.79 32.42 22.43C32.35 22.06 32.2 21.71 31.99 21.4L31.99 21.4Z" fill="#FFFFFF" fill-opacity="1.000000" fill-rule="evenodd"/>
		<path id="Vector" d="M5.76 9.74C6.17 9.49 6.65 9.36 7.14 9.37C7.63 9.37 8.1 9.51 8.5 9.77C8.91 10.03 9.22 10.4 9.4 10.82C9.58 11.25 9.63 11.71 9.52 12.16C9.42 12.61 9.18 13.02 8.83 13.34C8.48 13.66 8.04 13.88 7.56 13.96C7.07 14.04 6.58 13.99 6.13 13.81C5.68 13.63 5.3 13.32 5.03 12.94C4.68 12.42 4.56 11.8 4.69 11.2C4.83 10.6 5.21 10.08 5.76 9.74Z" fill="#FFFFFF" fill-opacity="1.000000" fill-rule="evenodd"/>
		<path id="Vector" d="M46.91 7.5L46.91 15.09C46.86 15.97 47.13 16.83 47.68 17.55C48.37 18.14 49.28 18.47 50.21 18.46C51.15 18.46 52.05 18.13 52.74 17.54C53.31 16.84 53.59 15.97 53.55 15.09L53.55 7.5L55.71 7.5L55.71 15.29C55.77 15.98 55.67 16.66 55.44 17.31C55.2 17.95 54.82 18.55 54.33 19.05C53.13 19.85 51.7 20.28 50.23 20.28C48.76 20.28 47.32 19.85 46.13 19.04C45.63 18.54 45.25 17.95 45.01 17.31C44.77 16.66 44.67 15.98 44.73 15.3L44.73 7.5L46.91 7.5Z" fill="#FFFFFF" fill-opacity="1.000000" fill-rule="nonzero"/>
		<path id="Vector" d="M58.4 7.01L66.86 14.63C66.93 14.69 67 14.76 67.05 14.82C67.11 14.88 67.18 14.94 67.25 15.01C67.33 15.09 67.42 15.18 67.5 15.26C67.58 15.35 67.66 15.44 67.75 15.54C67.85 15.63 67.94 15.73 68.04 15.84C68.13 15.95 68.23 16.05 68.33 16.16L68.33 7.5L70.31 7.5L70.31 20.46L61.68 12.71C61.44 12.5 61.21 12.27 61 12.03C60.79 11.8 60.59 11.55 60.39 11.3L60.39 20L58.4 20L58.4 7.01Z" fill="#FFFFFF" fill-opacity="1.000000" fill-rule="nonzero"/>
		<path id="Vector" d="M73.11 7.5L75.29 7.5L75.29 20L73.11 20L73.11 7.5Z" fill="#FFFFFF" fill-opacity="1.000000" fill-rule="nonzero"/>
		<path id="Vector" d="M86.9 9.47C86.22 9.22 85.49 9.09 84.76 9.09C84.59 9.09 84.41 9.1 84.23 9.11C84.05 9.13 83.86 9.15 83.66 9.17C83.1 9.25 82.57 9.43 82.09 9.71C81.61 9.98 81.19 10.35 80.87 10.78C80.23 11.59 79.87 12.56 79.82 13.56L79.82 14.03C79.88 14.95 80.21 15.84 80.76 16.61C81.33 17.42 82.2 18.01 83.21 18.27C83.32 18.29 83.44 18.32 83.55 18.34C83.67 18.36 83.79 18.38 83.92 18.41L84.26 18.45C84.38 18.46 84.49 18.47 84.61 18.47C85.38 18.47 86.14 18.31 86.84 18C87.55 17.69 88.22 17.3 88.84 16.85L88.84 19.15C88.41 19.42 87.95 19.64 87.47 19.81C87 19.97 86.51 20.1 86.01 20.18C85.78 20.21 85.55 20.23 85.32 20.25C85.09 20.27 84.87 20.28 84.66 20.28C82.95 20.28 81.3 19.74 79.98 18.73C79.28 18.21 78.7 17.55 78.29 16.81C77.87 16.06 77.63 15.24 77.58 14.41L77.58 14.08C77.57 14.04 77.56 13.99 77.56 13.94L77.56 13.78C77.55 12.48 77.96 11.2 78.73 10.11C79.29 9.31 80.03 8.64 80.9 8.15C81.78 7.66 82.76 7.36 83.77 7.28C83.82 7.28 83.86 7.27 83.9 7.27C83.94 7.26 83.97 7.26 84.01 7.26C84.14 7.24 84.26 7.24 84.39 7.24L84.72 7.24C85.46 7.23 86.2 7.34 86.9 7.57C87.62 7.8 88.31 8.12 88.95 8.5L88.84 10.54C88.25 10.09 87.6 9.73 86.9 9.47Z" fill="#FFFFFF" fill-opacity="1.000000" fill-rule="nonzero"/>
		<path id="Vector" d="M102.22 19.23C101.04 19.92 99.67 20.28 98.28 20.28C98.17 20.28 98.06 20.28 97.95 20.27C97.84 20.26 97.73 20.25 97.62 20.24C97.16 20.2 96.7 20.12 96.26 20.01C95.81 19.89 95.38 19.73 94.97 19.53C93.82 18.97 92.86 18.11 92.19 17.07C91.54 16.06 91.19 14.9 91.19 13.72C91.19 13.53 91.2 13.34 91.22 13.15C91.29 12.62 91.42 12.11 91.6 11.6C91.73 11.29 91.87 10.97 92.03 10.67C92.65 9.6 93.58 8.71 94.72 8.12C95.82 7.54 97.06 7.24 98.33 7.24C98.55 7.24 98.77 7.25 99 7.27C99.22 7.29 99.44 7.32 99.66 7.36C100.12 7.44 100.58 7.56 101.02 7.71C101.46 7.86 101.88 8.06 102.27 8.31C103.25 8.91 104.05 9.74 104.59 10.72C105.13 11.68 105.42 12.75 105.42 13.84C105.42 14.25 105.38 14.67 105.29 15.07C105.2 15.48 105.08 15.88 104.92 16.26C104.4 17.5 103.45 18.55 102.22 19.23ZM101.29 17.47C101.88 17.03 102.36 16.47 102.68 15.83C103.01 15.19 103.18 14.49 103.18 13.78C103.19 13.17 103.06 12.56 102.82 12C102.57 11.43 102.21 10.92 101.75 10.49C101.31 10.04 100.77 9.69 100.17 9.45C99.58 9.21 98.93 9.09 98.28 9.09L97.83 9.09C97.22 9.15 96.62 9.32 96.08 9.59C95.54 9.87 95.06 10.25 94.68 10.7C93.88 11.57 93.44 12.69 93.43 13.84C93.43 13.91 93.44 13.97 93.45 14.04C93.45 14.11 93.46 14.18 93.48 14.24C93.48 14.28 93.48 14.32 93.49 14.35C93.5 14.39 93.5 14.43 93.5 14.47C93.51 14.5 93.52 14.54 93.53 14.58C93.54 14.61 93.54 14.64 93.54 14.67C93.76 15.72 94.37 16.66 95.25 17.34C95.81 17.8 96.48 18.13 97.21 18.3C97.94 18.47 98.7 18.48 99.42 18.32C100.11 18.19 100.76 17.9 101.29 17.47Z" fill="#FFFFFF" fill-opacity="1.000000" fill-rule="nonzero"/>
		<path id="Vector" d="M108.08 7.01L116.53 14.63C116.6 14.69 116.67 14.76 116.73 14.82C116.78 14.88 116.85 14.94 116.92 15.01C117.01 15.09 117.09 15.18 117.17 15.26C117.25 15.35 117.33 15.44 117.42 15.54C117.52 15.63 117.62 15.73 117.71 15.84C117.81 15.95 117.9 16.05 118 16.16L118 7.5L119.99 7.5L119.99 20.46L111.36 12.71C111.12 12.5 110.89 12.27 110.68 12.03C110.47 11.8 110.27 11.55 110.06 11.3L110.06 20L108.08 20L108.08 7.01Z" fill="#FFFFFF" fill-opacity="1.000000" fill-rule="nonzero"/>
		<path id="Vector" d="M128.38 16.71C128.5 17.11 128.72 17.48 129.02 17.78C129.33 18.09 129.75 18.29 130.2 18.35L130.28 18.37C130.31 18.37 130.33 18.38 130.36 18.39C130.44 18.4 130.54 18.41 130.63 18.43C130.73 18.44 130.83 18.45 130.92 18.45L131.07 18.45C131.12 18.45 131.18 18.44 131.22 18.43C131.51 18.4 131.8 18.33 132.06 18.21C132.31 18.09 132.53 17.92 132.69 17.7C132.77 17.58 132.83 17.45 132.89 17.31C132.94 17.17 132.98 17.03 133 16.88C133.01 16.84 133.02 16.81 133.02 16.77L133.02 16.65C133.02 16.59 133.01 16.53 133.01 16.46C133 16.4 132.99 16.34 132.97 16.27C132.96 16.17 132.94 16.07 132.91 15.97C132.88 15.88 132.84 15.79 132.78 15.71C132.61 15.46 132.39 15.25 132.11 15.1C131.8 14.92 131.48 14.77 131.14 14.64C130.91 14.53 130.68 14.43 130.45 14.35C130.25 14.27 130.04 14.18 129.85 14.08C129.83 14.08 129.82 14.07 129.81 14.07C129.79 14.06 129.78 14.05 129.76 14.03C129.14 13.72 128.56 13.34 128.03 12.91C127.49 12.47 127.14 11.86 127.05 11.19C127.04 11.14 127.03 11.11 127.02 11.06C127.02 11.01 127.01 10.98 127 10.93C127 10.88 126.99 10.84 126.99 10.79C126.98 10.75 126.98 10.71 126.98 10.67C126.98 10.59 126.98 10.5 126.99 10.41C127 10.32 127.01 10.24 127.02 10.14C127.08 9.81 127.19 9.49 127.34 9.19C127.48 8.89 127.67 8.62 127.91 8.38C128.26 8.02 128.69 7.74 129.18 7.56C129.69 7.36 130.23 7.23 130.78 7.19L131.23 7.19C131.29 7.19 131.32 7.2 131.41 7.2C132.13 7.25 132.83 7.45 133.45 7.79C134.09 8.12 134.58 8.65 134.83 9.29L133.17 10.12C132.95 9.79 132.66 9.51 132.32 9.28C131.98 9.07 131.57 8.96 131.16 8.97L131.1 8.97C130.62 8.97 130.17 9.15 129.83 9.46C129.5 9.72 129.3 10.09 129.24 10.49L129.24 10.61C129.24 10.65 129.25 10.7 129.25 10.75C129.26 10.8 129.27 10.84 129.29 10.89C129.32 11.07 129.39 11.24 129.5 11.39C129.62 11.56 129.77 11.7 129.93 11.82C130.22 12.06 130.55 12.27 130.89 12.43C131.25 12.6 131.6 12.75 131.96 12.89L132.03 12.92L132.09 12.95C132.36 13.05 132.63 13.16 132.9 13.28C133.16 13.39 133.41 13.52 133.64 13.67C134.09 13.95 134.46 14.32 134.73 14.76C134.99 15.17 135.15 15.62 135.22 16.09C135.23 16.16 135.24 16.25 135.25 16.33C135.26 16.41 135.26 16.49 135.26 16.57C135.26 17.3 135.03 18.01 134.6 18.62C134.17 19.27 133.51 19.75 132.74 19.99C132.59 20.03 132.44 20.07 132.28 20.12C132.13 20.15 131.97 20.18 131.81 20.19C131.64 20.22 131.47 20.24 131.31 20.25C131.15 20.27 131 20.27 130.86 20.27C129.93 20.28 129.01 20.04 128.23 19.57C127.41 19.09 126.83 18.33 126.61 17.46L128.38 16.71Z" fill="#FFFFFF" fill-opacity="1.000000" fill-rule="nonzero"/>
		<path id="Vector" d="M148.22 19.23C147.03 19.91 145.67 20.28 144.28 20.28C144.16 20.28 144.05 20.28 143.95 20.27C143.84 20.26 143.73 20.25 143.61 20.24C143.15 20.2 142.7 20.12 142.25 20.01C141.81 19.89 141.37 19.73 140.96 19.53C139.81 18.97 138.85 18.11 138.19 17.07C137.53 16.06 137.19 14.9 137.19 13.72C137.19 13.53 137.2 13.34 137.22 13.15C137.24 12.96 137.27 12.77 137.32 12.58C137.38 12.25 137.47 11.92 137.6 11.6C137.72 11.29 137.87 10.97 138.03 10.67C138.64 9.6 139.57 8.71 140.71 8.12C141.82 7.54 143.06 7.24 144.33 7.24C144.54 7.24 144.76 7.25 144.99 7.27C145.22 7.29 145.44 7.32 145.66 7.36C146.12 7.44 146.58 7.56 147.02 7.71C147.46 7.86 147.88 8.06 148.27 8.31C149.25 8.91 150.05 9.74 150.58 10.72C151.13 11.68 151.41 12.75 151.42 13.84C151.42 14.25 151.37 14.67 151.29 15.07C151.2 15.48 151.08 15.88 150.92 16.26C150.39 17.5 149.44 18.55 148.22 19.23ZM147.28 17.47C147.88 17.03 148.35 16.47 148.68 15.83C149.01 15.19 149.18 14.49 149.18 13.78C149.19 13.17 149.06 12.56 148.82 12C148.57 11.43 148.21 10.92 147.75 10.49C147.31 10.04 146.77 9.69 146.17 9.45C145.58 9.21 144.93 9.09 144.28 9.09L143.83 9.09C143.22 9.15 142.62 9.32 142.08 9.59C141.53 9.87 141.06 10.25 140.68 10.7C139.87 11.58 139.43 12.69 139.43 13.84C139.43 13.91 139.43 13.98 139.44 14.05C139.45 14.11 139.46 14.18 139.47 14.25C139.47 14.28 139.47 14.32 139.48 14.36C139.49 14.39 139.49 14.43 139.49 14.47C139.51 14.51 139.52 14.54 139.53 14.58C139.53 14.61 139.54 14.64 139.54 14.67C139.76 15.72 140.36 16.67 141.24 17.35C141.81 17.81 142.48 18.13 143.2 18.3C143.93 18.47 144.69 18.48 145.42 18.33C146.11 18.2 146.75 17.9 147.28 17.47Z" fill="#FFFFFF" fill-opacity="1.000000" fill-rule="nonzero"/>
		<path id="Vector" d="M153.97 7.5L161.41 7.5L161.41 9.25L156.12 9.25L156.12 12.35L161.41 12.35L161.41 14.1L156.12 14.1L156.12 20L153.97 20L153.97 7.5Z" fill="#FFFFFF" fill-opacity="1.000000" fill-rule="nonzero"/>
		<path id="Vector" d="M169.56 20L167.39 20L167.39 9.25L163.84 9.25L163.84 7.5L173.08 7.5L173.08 9.25L169.57 9.25L169.56 20Z" fill="#FFFFFF" fill-opacity="1.000000" fill-rule="nonzero"/>
	</g>
</svg>
