<svg width="1441.000000" height="870.000000" viewBox="0 0 1441 870" fill="none" xmlns="http://www.w3.org/2000/svg" xmlns:xlink="http://www.w3.org/1999/xlink">
	<desc>
			Created with Pixso.
	</desc>
	<defs>
		<linearGradient id="paint_linear_2152_343_0" x1="-0.000122" y1="0.000000" x2="1367.387085" y2="929.830078" gradientUnits="userSpaceOnUse">
			<stop stop-color="#FFFFFF" stop-opacity="0.101961"/>
			<stop offset="1.000000" stop-color="#FFFFFF" stop-opacity="0.000000"/>
		</linearGradient>
	</defs>
	<path id="Vector" d="M71.98 0L71.98 66.84L71.98 133.69L71.98 200.53L71.98 267.38L71.98 334.23L71.98 401.07L71.98 467.92L71.98 534.76L71.98 601.61L71.98 668.46L71.98 735.3L71.98 802.15L71.98 869M0 66.84L0 133.69L0 200.53L0 267.38L0 334.23L0 401.07L0 467.92L0 534.76L0 601.61L0 668.46L0 735.3L0 802.15L0 869L71.98 869L143.96 869L215.95 869L287.93 869L359.92 869L431.9 869L503.88 869L575.87 869L647.85 869L719.84 869L791.82 869L863.81 869L935.79 869L935.79 0L863.81 0L791.82 0L719.84 0L647.85 0L575.87 0L503.88 0L431.9 0L359.92 0L287.93 0L215.95 0L143.96 0L71.98 0L0 0L0 66.84ZM143.96 0L143.96 66.84L143.96 133.69M143.96 133.69L143.96 200.53L143.96 267.38L143.96 334.23L143.96 401.07M143.96 401.07L143.96 467.92L143.96 534.76L143.96 601.61L143.96 668.46M143.96 668.46L143.96 735.3L143.96 802.15L143.96 869M215.95 0L215.95 66.84L215.95 133.69M215.95 133.69L215.95 200.53L215.95 267.38L215.95 334.23L215.95 401.07M215.95 401.07L215.95 467.92M215.95 467.92L215.95 534.76L215.95 601.61L215.95 668.46M215.95 668.46L215.95 735.3L215.95 802.15L215.95 869M287.93 0L287.93 66.84L287.93 133.69L287.93 200.53L287.93 267.38L287.93 334.23L287.93 401.07M287.93 401.07L287.93 467.92M287.93 467.92L287.93 534.76L287.93 601.61L287.93 668.46L287.93 735.3L287.93 802.15L287.93 869M503.88 0L503.88 66.84L503.88 133.69L503.88 200.53L503.88 267.38L503.88 334.23L503.88 401.07M503.88 401.07L503.88 467.92M503.88 467.92L503.88 534.76L503.88 601.61L503.88 668.46L503.88 735.3L503.88 802.15L503.88 869M719.84 0L719.84 66.84L719.84 133.69L719.84 200.53L719.84 267.38L719.84 334.23L719.84 401.07L719.84 467.92L719.84 534.76L719.84 601.61L719.84 668.46L719.84 735.3L719.84 802.15L719.84 869M359.92 0L359.92 66.84L359.92 133.69L359.92 200.53L359.92 267.38L359.92 334.23L359.92 401.07L359.92 467.92L359.92 534.76L359.92 601.61L359.92 668.46L359.92 735.3L359.92 802.15L359.92 869M575.87 0L575.87 66.84L575.87 133.69L575.87 200.53L575.87 267.38L575.87 334.23L575.87 401.07M575.87 401.07L575.87 467.92M575.87 467.92L575.87 534.76L575.87 601.61L575.87 668.46L575.87 735.3L575.87 802.15L575.87 869M791.82 0L791.82 66.84L791.82 133.69L791.82 200.53L791.82 267.38L791.82 334.23L791.82 401.07L791.82 467.92L791.82 534.76L791.82 601.61L791.82 668.46L791.82 735.3L791.82 802.15L791.82 869M431.9 0L431.9 66.84L431.9 133.69L431.9 200.53L431.9 267.38L431.9 334.23L431.9 401.07L431.9 467.92L431.9 534.76L431.9 601.61M431.9 601.61L431.9 668.46L431.9 735.3L431.9 802.15L431.9 869M647.85 0L647.85 66.84L647.85 133.69L647.85 200.53L647.85 267.38L647.85 334.23L647.85 401.07L647.85 467.92L647.85 534.76L647.85 601.61L647.85 668.46L647.85 735.3L647.85 802.15L647.85 869M863.81 0L863.81 66.84L863.81 133.69L863.81 200.53L863.81 267.38L863.81 334.23L863.81 401.07L863.81 467.92L863.81 534.76L863.81 601.61L863.81 668.46L863.81 735.3L863.81 802.15L863.81 869M0 802.15L71.98 802.15M71.98 802.15L143.96 802.15M143.96 802.15L215.95 802.15M215.95 802.15L287.93 802.15M287.93 802.15L359.92 802.15M359.92 802.15L431.9 802.15M431.9 802.15L503.88 802.15M503.88 802.15L575.87 802.15M575.87 802.15L647.85 802.15M647.85 802.15L719.84 802.15M719.84 802.15L791.82 802.15M791.82 802.15L863.81 802.15M863.81 802.15L935.79 802.15M0 735.3L71.98 735.3M71.98 735.3L143.96 735.3M143.96 735.3L215.95 735.3M215.95 735.3L287.93 735.3M287.93 735.3L359.92 735.3M359.92 735.3L431.9 735.3M431.9 735.3L503.88 735.3M503.88 735.3L575.87 735.3M575.87 735.3L647.85 735.3M647.85 735.3L719.84 735.3M719.84 735.3L791.82 735.3M791.82 735.3L863.81 735.3M863.81 735.3L935.79 735.3M0 668.46L71.98 668.46M71.98 668.46L143.96 668.46L215.95 668.46L287.93 668.46M287.93 668.46L359.92 668.46M359.92 668.46L431.9 668.46M431.9 668.46L503.88 668.46M503.88 668.46L575.87 668.46M575.87 668.46L647.85 668.46M647.85 668.46L719.84 668.46M719.84 668.46L791.82 668.46M791.82 668.46L863.81 668.46M863.81 668.46L935.79 668.46M0 601.61L71.98 601.61M71.98 601.61L143.96 601.61M143.96 601.61L215.95 601.61M215.95 601.61L287.93 601.61M287.93 601.61L359.92 601.61M359.92 601.61L431.9 601.61L503.88 601.61M503.88 601.61L575.87 601.61M575.87 601.61L647.85 601.61M647.85 601.61L719.84 601.61M719.84 601.61L791.82 601.61M791.82 601.61L863.81 601.61M863.81 601.61L935.79 601.61M0 401.07L71.98 401.07M71.98 401.07L143.96 401.07L215.95 401.07L287.93 401.07L359.92 401.07M359.92 401.07L431.9 401.07M431.9 401.07L503.88 401.07L575.87 401.07L647.85 401.07M647.85 401.07L719.84 401.07M719.84 401.07L791.82 401.07M791.82 401.07L863.81 401.07M863.81 401.07L935.79 401.07M0 200.53L71.98 200.53M71.98 200.53L143.96 200.53M143.96 200.53L215.95 200.53M215.95 200.53L287.93 200.53M287.93 200.53L359.92 200.53M359.92 200.53L431.9 200.53M431.9 200.53L503.88 200.53M503.88 200.53L575.87 200.53M575.87 200.53L647.85 200.53M647.85 200.53L719.84 200.53M719.84 200.53L791.82 200.53M791.82 200.53L863.81 200.53M863.81 200.53L935.79 200.53M0 534.76L71.98 534.76M71.98 534.76L143.96 534.76M143.96 534.76L215.95 534.76M215.95 534.76L287.93 534.76M287.93 534.76L359.92 534.76M359.92 534.76L431.9 534.76M431.9 534.76L503.88 534.76M503.88 534.76L575.87 534.76M575.87 534.76L647.85 534.76M647.85 534.76L719.84 534.76M719.84 534.76L791.82 534.76M791.82 534.76L863.81 534.76M863.81 534.76L935.79 534.76M0 334.23L71.98 334.23M71.98 334.23L143.96 334.23M143.96 334.23L215.95 334.23M215.95 334.23L287.93 334.23M287.93 334.23L359.92 334.23M359.92 334.23L431.9 334.23M431.9 334.23L503.88 334.23M503.88 334.23L575.87 334.23M575.87 334.23L647.85 334.23M647.85 334.23L719.84 334.23M719.84 334.23L791.82 334.23M791.82 334.23L863.81 334.23M863.81 334.23L935.79 334.23M0 133.69L71.98 133.69M71.98 133.69L143.96 133.69L215.95 133.69L287.93 133.69M287.93 133.69L359.92 133.69M359.92 133.69L431.9 133.69M431.9 133.69L503.88 133.69M503.88 133.69L575.87 133.69M575.87 133.69L647.85 133.69M647.85 133.69L719.84 133.69M719.84 133.69L791.82 133.69M791.82 133.69L863.81 133.69M863.81 133.69L935.79 133.69M0 467.92L71.98 467.92M71.98 467.92L143.96 467.92M143.96 467.92L215.95 467.92L287.93 467.92L359.92 467.92M359.92 467.92L431.9 467.92M431.9 467.92L503.88 467.92L575.87 467.92L647.85 467.92M647.85 467.92L719.84 467.92M719.84 467.92L791.82 467.92M791.82 467.92L863.81 467.92M863.81 467.92L935.79 467.92M0 267.38L71.98 267.38M71.98 267.38L143.96 267.38M143.96 267.38L215.95 267.38M215.95 267.38L287.93 267.38M287.93 267.38L359.92 267.38M359.92 267.38L431.9 267.38M431.9 267.38L503.88 267.38M503.88 267.38L575.87 267.38M575.87 267.38L647.85 267.38M647.85 267.38L719.84 267.38M719.84 267.38L791.82 267.38M791.82 267.38L863.81 267.38M863.81 267.38L935.79 267.38M0 66.84L71.98 66.84M71.98 66.84L143.96 66.84M143.96 66.84L215.95 66.84M215.95 66.84L287.93 66.84M287.93 66.84L359.92 66.84M359.92 66.84L431.9 66.84M431.9 66.84L503.88 66.84M503.88 66.84L575.87 66.84M575.87 66.84L647.85 66.84M647.85 66.84L719.84 66.84M719.84 66.84L791.82 66.84M791.82 66.84L863.81 66.84M863.81 66.84L935.79 66.84M576.18 0L576.18 66.84L576.18 133.69L576.18 200.53L576.18 267.38L576.18 334.23L576.18 401.07L576.18 467.92L576.18 534.76L576.18 601.61L576.18 668.46L576.18 735.3M576.18 735.3L576.18 802.15M576.18 802.15L576.18 869M504.2 66.84L504.2 133.69L504.2 200.53L504.2 267.38L504.2 334.23L504.2 401.07L504.2 467.92L504.2 534.76L504.2 601.61L504.2 668.46L504.2 735.3L504.2 802.15L504.2 869L576.18 869L648.17 869L720.15 869L792.14 869L864.12 869L936.1 869L1008.09 869L1080.07 869L1152.06 869L1224.05 869L1296.03 869L1368.02 869L1440 869L1440 0L1368.02 0L1296.03 0L1224.05 0L1152.06 0L1080.07 0L1008.09 0L936.1 0L864.12 0L792.14 0L720.15 0L648.17 0L576.18 0L504.2 0L504.2 66.84ZM648.17 0L648.17 66.84L648.17 133.69L648.17 200.53L648.17 267.38L648.17 334.23L648.17 401.07L648.17 467.92L648.17 534.76L648.17 601.61L648.17 668.46L648.17 735.3L648.17 802.15L648.17 869M720.15 0L720.15 66.84L720.15 133.69L720.15 200.53L720.15 267.38L720.15 334.23L720.15 401.07L720.15 467.92L720.15 534.76L720.15 601.61L720.15 668.46L720.15 735.3L720.15 802.15L720.15 869M792.14 0L792.14 66.84L792.14 133.69L792.14 200.53L792.14 267.38L792.14 334.23L792.14 401.07L792.14 467.92L792.14 534.76L792.14 601.61L792.14 668.46L792.14 735.3L792.14 802.15L792.14 869M1008.09 0L1008.09 66.84L1008.09 133.69L1008.09 200.53L1008.09 267.38L1008.09 334.23L1008.09 401.07L1008.09 467.92L1008.09 534.76L1008.09 601.61L1008.09 668.46L1008.09 735.3L1008.09 802.15L1008.09 869M1224.05 0L1224.05 66.84L1224.05 133.69L1224.05 200.53L1224.05 267.38L1224.05 334.23L1224.05 401.07M1224.05 401.07L1224.05 467.92M1224.05 467.92L1224.05 534.76L1224.05 601.61L1224.05 668.46L1224.05 735.3L1224.05 802.15L1224.05 869M864.12 0L864.12 66.84L864.12 133.69L864.12 200.53L864.12 267.38L864.12 334.23L864.12 401.07L864.12 467.92L864.12 534.76L864.12 601.61L864.12 668.46L864.12 735.3L864.12 802.15L864.12 869M1080.07 0L1080.07 66.84L1080.07 133.69L1080.07 200.53L1080.07 267.38L1080.07 334.23L1080.07 401.07L1080.07 467.92L1080.07 534.76L1080.07 601.61L1080.07 668.46L1080.07 735.3L1080.07 802.15L1080.07 869M1296.03 0L1296.03 66.84L1296.03 133.69L1296.03 200.53L1296.03 267.38L1296.03 334.23L1296.03 401.07L1296.03 467.92L1296.03 534.76L1296.03 601.61L1296.03 668.46L1296.03 735.3L1296.03 802.15L1296.03 869M936.1 0L936.1 66.84L936.1 133.69L936.1 200.53L936.1 267.38L936.1 334.23L936.1 401.07L936.1 467.92L936.1 534.76L936.1 601.61M936.1 601.61L936.1 668.46L936.1 735.3L936.1 802.15L936.1 869M1152.06 0L1152.06 66.84L1152.06 133.69L1152.06 200.53L1152.06 267.38L1152.06 334.23L1152.06 401.07L1152.06 467.92L1152.06 534.76L1152.06 601.61L1152.06 668.46L1152.06 735.3L1152.06 802.15L1152.06 869M1368.02 0L1368.02 66.84L1368.02 133.69L1368.02 200.53L1368.02 267.38L1368.02 334.23L1368.02 401.07L1368.02 467.92L1368.02 534.76L1368.02 601.61L1368.02 668.46L1368.02 735.3L1368.02 802.15L1368.02 869M504.2 802.15L576.18 802.15L648.17 802.15M648.17 802.15L720.15 802.15M720.15 802.15L792.14 802.15M792.14 802.15L864.12 802.15M864.12 802.15L936.1 802.15M936.1 802.15L1008.09 802.15M1008.09 802.15L1080.07 802.15M1080.07 802.15L1152.06 802.15M1152.06 802.15L1224.05 802.15M1224.05 802.15L1296.03 802.15M1296.03 802.15L1368.02 802.15M1368.02 802.15L1440 802.15M504.2 735.3L576.18 735.3L648.17 735.3M648.17 735.3L720.15 735.3M720.15 735.3L792.14 735.3M792.14 735.3L864.12 735.3M864.12 735.3L936.1 735.3M936.1 735.3L1008.09 735.3M1008.09 735.3L1080.07 735.3M1080.07 735.3L1152.06 735.3M1152.06 735.3L1224.05 735.3M1224.05 735.3L1296.03 735.3M1296.03 735.3L1368.02 735.3M1368.02 735.3L1440 735.3M504.2 668.46L576.18 668.46M576.18 668.46L648.17 668.46M648.17 668.46L720.15 668.46M720.15 668.46L792.14 668.46M792.14 668.46L864.12 668.46M864.12 668.46L936.1 668.46M936.1 668.46L1008.09 668.46M1008.09 668.46L1080.07 668.46M1080.07 668.46L1152.06 668.46M1152.06 668.46L1224.05 668.46M1224.05 668.46L1296.03 668.46M1296.03 668.46L1368.02 668.46M1368.02 668.46L1440 668.46M504.2 601.61L576.18 601.61M576.18 601.61L648.17 601.61M648.17 601.61L720.15 601.61M720.15 601.61L792.14 601.61M792.14 601.61L864.12 601.61M864.12 601.61L936.1 601.61L1008.09 601.61M1008.09 601.61L1080.07 601.61M1080.07 601.61L1152.06 601.61M1152.06 601.61L1224.05 601.61M1224.05 601.61L1296.03 601.61M1296.03 601.61L1368.02 601.61M1368.02 601.61L1440 601.61M504.2 401.07L576.18 401.07M576.18 401.07L648.17 401.07M648.17 401.07L720.15 401.07M720.15 401.07L792.14 401.07M792.14 401.07L864.12 401.07M864.12 401.07L936.1 401.07M936.1 401.07L1008.09 401.07M1008.09 401.07L1080.07 401.07M1080.07 401.07L1152.06 401.07M1152.06 401.07L1224.05 401.07L1296.03 401.07M1296.03 401.07L1368.02 401.07M1368.02 401.07L1440 401.07M504.2 200.53L576.18 200.53M576.18 200.53L648.17 200.53M648.17 200.53L720.15 200.53M720.15 200.53L792.14 200.53M792.14 200.53L864.12 200.53M864.12 200.53L936.1 200.53M936.1 200.53L1008.09 200.53M1008.09 200.53L1080.07 200.53M1080.07 200.53L1152.06 200.53M1152.06 200.53L1224.05 200.53M1224.05 200.53L1296.03 200.53M1296.03 200.53L1368.02 200.53M1368.02 200.53L1440 200.53M504.2 534.76L576.18 534.76M576.18 534.76L648.17 534.76M648.17 534.76L720.15 534.76M720.15 534.76L792.14 534.76M792.14 534.76L864.12 534.76M864.12 534.76L936.1 534.76M936.1 534.76L1008.09 534.76M1008.09 534.76L1080.07 534.76M1080.07 534.76L1152.06 534.76M1152.06 534.76L1224.05 534.76M1224.05 534.76L1296.03 534.76M1296.03 534.76L1368.02 534.76M1368.02 534.76L1440 534.76M504.2 334.23L576.18 334.23M576.18 334.23L648.17 334.23M648.17 334.23L720.15 334.23M720.15 334.23L792.14 334.23M792.14 334.23L864.12 334.23M864.12 334.23L936.1 334.23M936.1 334.23L1008.09 334.23M1008.09 334.23L1080.07 334.23M1080.07 334.23L1152.06 334.23M1152.06 334.23L1224.05 334.23M1224.05 334.23L1296.03 334.23M1296.03 334.23L1368.02 334.23M1368.02 334.23L1440 334.23M504.2 133.69L576.18 133.69M576.18 133.69L648.17 133.69M648.17 133.69L720.15 133.69M720.15 133.69L792.14 133.69M792.14 133.69L864.12 133.69M864.12 133.69L936.1 133.69M936.1 133.69L1008.09 133.69M1008.09 133.69L1080.07 133.69M1080.07 133.69L1152.06 133.69M1152.06 133.69L1224.05 133.69M1224.05 133.69L1296.03 133.69M1296.03 133.69L1368.02 133.69M1368.02 133.69L1440 133.69M504.2 467.92L576.18 467.92M576.18 467.92L648.17 467.92M648.17 467.92L720.15 467.92M720.15 467.92L792.14 467.92M792.14 467.92L864.12 467.92M864.12 467.92L936.1 467.92M936.1 467.92L1008.09 467.92M1008.09 467.92L1080.07 467.92M1080.07 467.92L1152.06 467.92M1152.06 467.92L1224.05 467.92L1296.03 467.92M1296.03 467.92L1368.02 467.92M1368.02 467.92L1440 467.92M504.2 267.38L576.18 267.38M576.18 267.38L648.17 267.38M648.17 267.38L720.15 267.38M720.15 267.38L792.14 267.38M792.14 267.38L864.12 267.38M864.12 267.38L936.1 267.38M936.1 267.38L1008.09 267.38M1008.09 267.38L1080.07 267.38M1080.07 267.38L1152.06 267.38M1152.06 267.38L1224.05 267.38M1224.05 267.38L1296.03 267.38M1296.03 267.38L1368.02 267.38M1368.02 267.38L1440 267.38M504.2 66.84L576.18 66.84M576.18 66.84L648.17 66.84M648.17 66.84L720.15 66.84M720.15 66.84L792.14 66.84M792.14 66.84L864.12 66.84M864.12 66.84L936.1 66.84M936.1 66.84L1008.09 66.84M1008.09 66.84L1080.07 66.84M1080.07 66.84L1152.06 66.84M1152.06 66.84L1224.05 66.84M1224.05 66.84L1296.03 66.84M1296.03 66.84L1368.02 66.84M1368.02 66.84L1440 66.84" stroke="url(#paint_linear_2152_343_0)" stroke-opacity="1.000000" stroke-width="1.000000"/>
</svg>
