<svg width="67.000000" height="67.000000" viewBox="0 0 67 67" fill="none" xmlns="http://www.w3.org/2000/svg" xmlns:xlink="http://www.w3.org/1999/xlink">
	<desc>
			Created with Pixso.
	</desc>
	<defs>
		<clipPath id="clip2152_766">
			<rect id="Frame" width="67.000000" height="67.000000" transform="translate(-0.500000 0.000000)" fill="white" fill-opacity="0"/>
		</clipPath>
		<linearGradient id="paint_linear_2152_770_0" x1="37.977207" y1="29.401342" x2="30.159414" y2="36.589016" gradientUnits="userSpaceOnUse">
			<stop stop-color="#9DE8EE"/>
			<stop offset="0.000100" stop-color="#9DE8EE"/>
			<stop offset="0.490049" stop-color="#FA7C0B"/>
			<stop offset="1.000000" stop-color="#9F8CED"/>
		</linearGradient>
		<linearGradient id="paint_linear_2152_771_0" x1="68.892860" y1="8.092190" x2="12.521694" y2="52.648766" gradientUnits="userSpaceOnUse">
			<stop stop-color="#9DE8EE"/>
			<stop offset="0.000100" stop-color="#9DE8EE"/>
			<stop offset="0.490049" stop-color="#FA7C0B"/>
			<stop offset="1.000000" stop-color="#9F8CED"/>
		</linearGradient>
	</defs>
	<rect id="Frame" width="67.000000" height="67.000000" transform="translate(-0.500000 0.000000)" fill="#FFFFFF" fill-opacity="0"/>
	<g clip-path="url(#clip2152_766)">
		<path id="Vector" d="M28.35 38.9L37.64 33.51L28.35 28.09L28.35 38.9Z" fill="#FFFFFF" fill-opacity="1.000000" fill-rule="nonzero"/>
		<path id="Vector" d="M28.35 38.9L37.64 33.51L28.35 28.09L28.35 38.9Z" fill="url(#paint_linear_2152_770_0)" fill-opacity="1.000000" fill-rule="nonzero"/>
		<path id="Vector" d="M33 0C26.37 0 19.89 1.96 14.38 5.64C8.87 9.32 4.58 14.55 2.05 20.68C-0.49 26.8 -1.15 33.53 0.14 40.03C1.43 46.53 4.62 52.5 9.31 57.18C13.99 61.87 19.96 65.06 26.46 66.35C32.96 67.64 39.69 66.98 45.82 64.44C51.94 61.91 57.17 57.62 60.85 52.11C64.53 46.6 66.5 40.12 66.5 33.5C66.5 24.61 62.97 16.09 56.68 9.81C50.4 3.52 41.88 0 33 0ZM50.63 39.42C50.63 40.3 50.46 41.17 50.12 41.98C49.79 42.79 49.29 43.52 48.67 44.14C48.06 44.76 47.32 45.25 46.51 45.59C45.7 45.92 44.83 46.1 43.96 46.1L22.03 46.1C21.16 46.1 20.29 45.92 19.48 45.59C18.67 45.25 17.93 44.76 17.32 44.14C16.7 43.52 16.2 42.79 15.87 41.98C15.53 41.17 15.36 40.3 15.36 39.42L15.36 27.57C15.36 26.69 15.53 25.82 15.87 25.01C16.2 24.2 16.7 23.47 17.32 22.85C17.93 22.23 18.67 21.74 19.48 21.4C20.29 21.07 21.16 20.89 22.03 20.89L43.96 20.89C44.83 20.89 45.7 21.07 46.51 21.4C47.32 21.74 48.06 22.23 48.67 22.85C49.29 23.47 49.79 24.2 50.12 25.01C50.46 25.82 50.63 26.69 50.63 27.57L50.63 39.42Z" fill="#FFFFFF" fill-opacity="1.000000" fill-rule="nonzero"/>
		<path id="Vector" d="M33 0C26.37 0 19.89 1.96 14.38 5.64C8.87 9.32 4.58 14.55 2.05 20.68C-0.49 26.8 -1.15 33.53 0.14 40.03C1.43 46.53 4.62 52.5 9.31 57.18C13.99 61.87 19.96 65.06 26.46 66.35C32.96 67.64 39.69 66.98 45.82 64.44C51.94 61.91 57.17 57.62 60.85 52.11C64.53 46.6 66.5 40.12 66.5 33.5C66.5 24.61 62.97 16.09 56.68 9.81C50.4 3.52 41.88 0 33 0ZM50.63 39.42C50.63 40.3 50.46 41.17 50.12 41.98C49.79 42.79 49.29 43.52 48.67 44.14C48.06 44.76 47.32 45.25 46.51 45.59C45.7 45.92 44.83 46.1 43.96 46.1L22.03 46.1C21.16 46.1 20.29 45.92 19.48 45.59C18.67 45.25 17.93 44.76 17.32 44.14C16.7 43.52 16.2 42.79 15.87 41.98C15.53 41.17 15.36 40.3 15.36 39.42L15.36 27.57C15.36 26.69 15.53 25.82 15.87 25.01C16.2 24.2 16.7 23.47 17.32 22.85C17.93 22.23 18.67 21.74 19.48 21.4C20.29 21.07 21.16 20.89 22.03 20.89L43.96 20.89C44.83 20.89 45.7 21.07 46.51 21.4C47.32 21.74 48.06 22.23 48.67 22.85C49.29 23.47 49.79 24.2 50.12 25.01C50.46 25.82 50.63 26.69 50.63 27.57L50.63 39.42Z" fill="url(#paint_linear_2152_771_0)" fill-opacity="1.000000" fill-rule="nonzero"/>
	</g>
</svg>
